<?xml version="1.0" encoding="UTF-8"?>
<svg id="Layer_1" data-name="Layer 1" xmlns="http://www.w3.org/2000/svg" viewBox="0 0 1920 1080">
  <defs>
    <style>
      .cls-1 {
        fill: #ffecdb;
      }

      .cls-1, .cls-2, .cls-3, .cls-4, .cls-5, .cls-6, .cls-7, .cls-8, .cls-9, .cls-10, .cls-11 {
        stroke: #fff;
        stroke-miterlimit: 10;
      }

      .cls-2 {
        fill: #ef7c99;
      }

      .cls-3 {
        fill: none;
      }

      .cls-4, .cls-12 {
        fill: #020003;
      }

      .cls-5 {
        fill: #ffbdcc;
      }

      .cls-6 {
        fill: #f28159;
      }

      .cls-7 {
        fill: #291222;
      }

      .cls-8 {
        fill: #241f25;
      }

      .cls-9 {
        fill: #ad76b7;
      }

      .cls-10 {
        fill: #fff;
      }

      .cls-12, .cls-13 {
        stroke-width: 0px;
      }

      .cls-13 {
        fill: #010000;
      }

      .cls-11 {
        fill: #da6868;
      }
    </style>
  </defs>
  <path class="cls-8" d="m894.74,588.14c65.31,26.51,139.88,19.65,207.4-.58,29.77-8.91,59.25-20.58,83.72-39.73,25.56-20.01,44.63-47.51,57.69-77.23,6.27-14.26,11.26-29.22,13.02-44.7,4.65-40.84-14.19-82.09-43.63-110.78-29.44-28.68-68.39-45.95-108.23-56.03-65.76-16.63-138.3-14.23-198.05,17.86-59.76,32.09-103.69,96.99-100.26,164.74,1.17,23.17,7.57,45.79,15.63,67.54,6.3,16.99,13.85,33.93,26.08,47.29,14.4,15.74,33.68,26.35,46.64,31.61Z"/>
  <path class="cls-7" d="m1243.11,355.44c-37.6-95.02-91.38-184.22-162.29-257.81-14.2-14.74-29.17-28.92-46.39-39.99.12,63.18.23,126.36.35,189.54,39.1,4.28,78.11,12.44,113.97,28.61,35.86,16.16,68.55,40.72,94.35,79.65Z"/>
  <path class="cls-5" d="m1152.6,276.21c1.48-33.08-12.84-64.88-30.34-92.98-12.61-20.25-28.05-40.19-49.92-49.69,13.17,39.93,25.12,80.27,35.82,120.93.44,1.68.94,3.46,2.23,4.62,1.19,1.07,2.84,1.43,4.4,1.79,14.21,3.23,27.72,9.53,37.81,15.33Z"/>
  <path class="cls-8" d="m896.61,282.57c-36.23-18.26-67.43-44.88-99.74-69.41-32.31-24.54-67.03-47.64-106.5-57.04,16.04,85.68,37.93,170.27,65.48,252.97,4.94,14.84,10.08,29.65,16.71,43.82,12.94,27.68,31.55,52.7,54.35,73.05-12.14-34.73-19.85-71.72-15.97-108.3,5.75-54.13,38.27-104.75,85.67-135.08Z"/>
  <path class="cls-5" d="m833.26,349.12c-20.15-39.65-44.64-79.38-82.62-102.52-.89-.54-1.87-1.1-2.91-.99-2.87.28-2.95,4.45-2.16,7.23,15,52.75,30.55,106.66,62.39,151.31,5.12-20.73,14.91-40.28,25.3-55.02Z"/>
  <path class="cls-1" d="m1167.97,377.89c14.94-9.16,21.9-28.6,18.48-45.79-3.42-17.19-15.98-31.73-31.42-40.01-6.61-3.54-13.98-6.1-21.47-5.76-10.67.49-20.21,6.74-28.26,13.75-4.74,4.13-9.24,8.67-12.31,14.15-2.84,5.07-4.37,10.81-4.99,16.58-2.25,20.91,8.52,43.1,27.18,52.82,18.66,9.72,40.91,1.54,52.79-5.75Z"/>
  <path class="cls-1" d="m1044.49,421.68c7.77-15.43,6.15-34.19-.04-50.32-4.71-12.29-12.12-23.8-22.57-31.8-20.89-15.99-50.51-15.47-75.47-7.13-11.47,3.83-22.64,9.28-31.3,17.71-15.27,14.87-20.93,37.39-20.3,58.68.16,5.29.68,10.68,2.77,15.55,2.59,6.02,7.38,10.8,12.35,15.06,20.38,17.44,47.94,28.9,74.1,22.98,8.41-1.9,16.32-5.5,24.06-9.29,7.46-3.65,14.9-7.56,21.15-13.02,6.25-5.47,12.11-12.2,15.24-18.42Z"/>
  <path class="cls-12" d="m1173.57,350.03c3.22-3.08,6.63-6.55,7.13-10.97.44-3.93-1.53-7.69-3.51-11.1-2.05-3.54-4.53-7.3-8.44-8.5-2.52-.77-5.27-.33-7.73.6-5.16,1.95-9.46,6.08-11.61,11.17s-2.12,11.05.08,16.11c1.33,3.05,3.56,5.89,6.67,7.07,1.84.7,3.87.78,5.83.55,5.3-.6,10.17-3.56,11.59-4.93Z"/>
  <path class="cls-13" d="m1030.27,392.84c2.91-2.76,5.91-5.86,6.58-9.81.9-5.31-2.69-10.32-6.56-14.07-2.3-2.23-4.89-4.34-7.98-5.19-5.3-1.45-11.19,1.34-14.29,5.88-3.1,4.54-3.69,10.45-2.6,15.84.74,3.65,2.33,7.32,5.33,9.53,3.25,2.4,7.66,2.69,11.62,1.9,4.1-.82,8.29-3.04,7.9-4.08Z"/>
  <path class="cls-4" d="m1099.93,411.12c4.41-2.16,9.13-5.05,10.3-9.82.29-1.16.3-2.5-.46-3.43-.49-.6-1.22-.95-1.95-1.23-7.29-2.92-15.89-2.32-22.7,1.58-1.12.64-2.23,1.4-2.85,2.53-1.09,1.98-.32,4.58,1.22,6.24,1.54,1.66,3.69,2.6,5.77,3.5,3.94,1.69,8.91,3.26,10.67.63Z"/>
  <path class="cls-3" d="m1096.13,412.14c6.62,15.97,18.07,29.89,32.47,39.47"/>
  <path class="cls-3" d="m1097.91,418.08c-2.6,9.83-8.96,18.44-16.98,24.69-8.02,6.25-17.63,10.25-27.51,12.63"/>
  <path class="cls-11" d="m1118.78,444.19c.04,36.05-7.89,72.08-23.06,104.78-4.4,9.47-9.53,18.86-17.22,25.93-4.49-9.53-3.13-20.62-2.47-31.14,1.87-29.92-2.81-59.8-6.83-89.5-.14-1.06-.28-2.2.19-3.16.4-.84,1.19-1.41,1.95-1.95,5.51-3.88,11.15-7.65,15.94-12.39,4.79-4.74,8.74-10.59,10.02-17.21,6.99,9.34,14.33,18.42,21.48,24.65Z"/>
  <path class="cls-10" d="m1087.27,436.73c.41,6.74.81,13.51.1,20.22-.17,1.58-.82,3.57-2.41,3.64-3.71-4.24-6.12-9.6-6.84-15.19,3.05-2.09,5.7-4.77,9.15-8.67Z"/>
  <path class="cls-2" d="m1208.88,474.77c13.99-3.69,22.37-18.7,23.8-33.1,1.19-12.03-1.49-24.59-8.43-34.49-6.94-9.89-18.31-16.83-30.39-17.41-8.93-.43-17.83,2.55-25.3,7.45-13.41,8.79-22.45,24.23-22.71,40.27-.25,16.03,8.67,32.09,22.82,39.63,14.16,7.53,32.97,5.72,40.2-2.35Z"/>
  <path class="cls-2" d="m1004.04,545.19c16.19-8.77,23.65-30.76,16.13-47.57-5.44-12.16-17.49-20.72-30.54-23.41s-26.86.09-38.7,6.18c-6.81,3.5-13.33,8.38-16.52,15.35-2.75,6.03-2.7,13.03-1.25,19.5,3.46,15.38,14.97,28.7,29.69,34.35,14.72,5.65,30.7,1.29,41.18-4.39Z"/>
  <path class="cls-3" d="m1165.44,425.69c60.76-21.63,124.01-36.23,188.1-43.42"/>
  <path class="cls-3" d="m1188.35,434.92c51.54-15.46,105.9-21.42,159.56-17.51"/>
  <path class="cls-3" d="m1175.61,454.67c52.91-4.76,106.94,3.6,155.94,24.13"/>
  <path class="cls-3" d="m976.04,492.41c-61.81,6.15-122.1,27.03-174.46,60.43"/>
  <path class="cls-3" d="m961.56,520.34c-53.34,14.56-103.75,39.77-147.39,73.73"/>
  <path class="cls-3" d="m996.02,516.44c-61.86,29.09-117.82,70.64-163.55,121.44"/>
  <path class="cls-8" d="m1116.63,631.64c10.13,89.91,14.87,180.43,14.18,270.9-.01,1.31,0,2.7.7,3.81,1.34,2.12,4.34,2.14,6.84,2.37,10.95,1.02,19.89,12.12,18.56,23.03-1.48,12.15-13.75,20.67-25.9,22.06-12.16,1.4-24.21-2.63-38.29-7.22-.65,5.35-3.66,10.78-8.71,12.65s-11.82-1.41-12.15-6.79c-1.52,4.45-4.68,8.53-9.07,10.22-4.39,1.69-9.99.46-12.58-3.47-1.79-2.72-2.34-6.67-5.36-7.91-2.82,5.94-9.2,10.01-15.77,10.08-6.9.06-14.16-5.38-14.19-13.77-24.42,1.88-48.98,1.79-73.39-.26-17.85-1.5-36.24-4.26-51.33-13.91-10.53-6.73-18.85-16.48-25.45-27.09-15.95-25.67-22.19-56.29-23.85-86.46-2.32-42.17,4.32-86.1,27.16-121.62,14.42-22.44,34.64-40.57,56-56.55,19.27-14.41,40.17-27.51,63.57-33.09,15.42-3.68,31.43-3.96,47.29-3.91,14.08.05,28.33.37,41.92,4.06,16.04,4.35,30.77,13.43,39.83,22.86Z"/>
  <path class="cls-8" d="m848.74,872.9c-18.7,5.71-37.8,11.09-57.36,11.21-19.55.12-39.89-5.63-53.72-19.45-19.59-19.59-22.08-50.99-15.8-77.97,8.79-37.77,31.6-70.43,51.38-103.78,19.79-33.35,37.41-70.59,33.99-109.22-1.06-12.05-4.18-23.87-8.59-35.14-21.09-53.92-70.6-92.46-123.89-115.1-26.68-11.33-55.71-19.45-84.47-15.82-23.73,2.99-45.75,13.77-66.5,25.68-19.26,11.05-38.14,23.43-52.81,40.1-14.67,16.67-24.87,38.2-24.15,60.39.72,22.19,13.96,44.53,34.75,52.31,6.47,2.42,13.53,3.41,20.36,2.39,6.97-1.04,13.47-4.11,19.55-7.65,32.69-19.05,57.99-53.29,95.31-59.57,34.62-5.83,70.17,16.73,85.53,48.3s12.83,69.71-.27,102.28c-13.81,34.34-38.66,64.31-46.34,100.52-10.46,49.3,15.88,103,59.37,128.47,43.48,25.47,100.62,23.25,144.28-1.92-2.38-9.36-4.75-18.72-10.64-26.02Z"/>
  <path class="cls-9" d="m1092.61,617.28c3.24-3.64,6.63-7.61,7.19-12.45.49-4.25-1.32-8.41-3.46-12.12-.81-1.41-1.74-2.86-3.16-3.66-1.47-.83-3.25-.86-4.94-.76-2.99.17-5.96.66-8.85,1.45-1.85.51-3.72,1.17-5.15,2.44-2.51,2.23-3.18,5.86-3.37,9.22-.19,3.39-.03,6.91,1.37,10.01,1.76,3.91,5.51,6.86,9.73,7.65,4.22.79,9.18-.13,10.65-1.78Z"/>
  <path class="cls-6" d="m1094.16,589.54c12.86-5.34,24.98-12.48,35.89-21.14,2.14-1.69,4.4-3.52,7.11-3.8,3.57-.37,6.93,2.17,8.64,5.33,1.7,3.16,2.09,6.84,2.43,10.41,1.89,19.96,3.14,40.11.99,60.05-.16,1.45-.73,3.3-2.2,3.34-.49.01-.96-.2-1.4-.42-17.42-8.39-34.83-16.79-52.25-25.18,4.26-3.99,8.13-8.88,8.9-14.66.77-5.78-2.63-12.41-8.11-13.94Z"/>
  <path class="cls-6" d="m1070.52,594.24c-4.9-3.7-11.06-5.25-17.09-6.42-12.11-2.36-24.44-3.56-36.77-3.57-2.3,0-4.7.06-6.75,1.11-4.31,2.22-5.45,7.81-5.63,12.66-.53,14.72,3.22,29.22,6.93,43.47.97,3.71,2.56,8.05,6.3,8.89,1.88.42,3.82-.21,5.61-.91,9.17-3.59,17.37-9.23,25.48-14.81,4.09-2.82,8.18-5.63,12.26-8.45,4-2.76,8.03-5.54,11.38-9.05.49-.51.99-1.09,1.08-1.79.11-.84-.38-1.62-.81-2.35-3.51-5.94-4.41-13.36-2-18.78Z"/>
  <path class="cls-3" d="m1080.68,721.86c1.34,68.01-.7,136.08-6.11,203.89,10.95.88,19.9,12.17,18.24,23.04"/>
  <path class="cls-3" d="m1019.06,737.95c1.85,35.71,3.71,71.47,2.6,107.2-.49,15.72-1.55,31.42-2.61,47.12-1.28,18.97-2.56,37.95-3.84,56.92"/>
  <path class="cls-3" d="m909.07,812.7c12.75-11.32,31.09-17.19,47.39-12.21,14.04,4.28,25.03,16.08,30.53,29.69,5.5,13.61,5.98,28.83,3.78,43.34-2.2,14.51-6.95,28.49-11.69,42.39,12.38,2.6,24.66,5.64,36.82,9.12"/>
</svg>