<?xml version="1.0" encoding="utf-8"?>
<!-- Generator: Adobe Adobe Illustrator 24.2.0, SVG Export Plug-In . SVG Version: 6.00 Build 0)  -->
<svg version="1.1" id="Layer_1" xmlns="http://www.w3.org/2000/svg" xmlns:xlink="http://www.w3.org/1999/xlink" x="0px" y="0px"
	 width="1920px" height="1080px" viewBox="0 0 1920 1080" style="enable-background:new 0 0 1920 1080;" xml:space="preserve">
<style type="text/css">
	.st0{fill:#FE4BA6;}
	.st1{fill:#FFCC86;}
	.st2{fill:#F29DC6;}
	.st3{fill:#8FBEFE;}
	.st4{fill:#FF429A;}
	.st5{fill:#FF429A;stroke:#FF429A;stroke-width:16;stroke-miterlimit:10;}
	.st6{fill:none;stroke:#FFCC88;stroke-width:16;stroke-miterlimit:10;}
	.st7{fill:#FCB605;stroke:#FCB605;stroke-miterlimit:10;}
	.st8{fill:#582780;stroke:#582780;stroke-miterlimit:10;}
	.st9{fill:#FFFFFF;stroke:#FCB605;stroke-miterlimit:10;}
	.st10{fill:#FCB605;stroke:#582780;stroke-miterlimit:10;}
	.st11{fill:#F6B718;stroke:#F6B718;stroke-miterlimit:10;}
	.st12{fill:#58287E;stroke:#58287E;stroke-miterlimit:10;}
	.st13{fill:#FFAF00;stroke:#FCB007;stroke-miterlimit:10;}
	.st14{fill:#FCB002;stroke:#FCB002;stroke-miterlimit:10;}
	.st15{fill:#E3C1B5;stroke:#000000;stroke-miterlimit:10;}
	.st16{stroke:#FF429A;stroke-width:5;stroke-miterlimit:10;}
	.st17{fill:#FF429A;stroke:#000000;stroke-miterlimit:10;}
	.st18{stroke:#000000;stroke-miterlimit:10;}
	.st19{fill:#463D40;stroke:#000000;stroke-miterlimit:10;}
	.st20{fill:none;stroke:#FF429A;stroke-width:5;stroke-miterlimit:10;}
	.st21{fill:#FFD6CA;stroke:#000000;stroke-width:2;stroke-miterlimit:10;}
	.st22{fill:#FDF0E7;stroke:#000000;stroke-width:2;stroke-miterlimit:10;}
	.st23{fill:none;stroke:#000000;stroke-width:2;stroke-miterlimit:10;}
	.st24{fill:#FED6CD;stroke:#000000;stroke-width:2;stroke-miterlimit:10;}
	.st25{stroke:#000000;stroke-width:2;stroke-miterlimit:10;}
	.st26{fill:#FFD5CA;stroke:#000000;stroke-width:2;stroke-miterlimit:10;}
	.st27{stroke:#FE4299;stroke-width:2;stroke-miterlimit:10;}
	.st28{fill:#FBD5CA;stroke:#000000;stroke-miterlimit:10;}
	.st29{fill:#FE4299;stroke:#000000;stroke-miterlimit:10;}
	.st30{fill:none;stroke:#000000;stroke-miterlimit:10;}
	.st31{fill:#FDD7C6;stroke:#000000;stroke-width:2;stroke-miterlimit:10;}
	.st32{fill:#0B090C;stroke:#000000;stroke-width:2;stroke-miterlimit:10;}
	.st33{fill:#4D4F4E;stroke:#000000;stroke-width:2;stroke-miterlimit:10;}
	.st34{fill:#FFEFE8;stroke:#000000;stroke-width:2;stroke-miterlimit:10;}
	.st35{fill:#FFD7CD;stroke:#000000;stroke-width:2;stroke-miterlimit:10;}
	.st36{fill:#4E4C4F;stroke:#000000;stroke-width:2;stroke-miterlimit:10;}
</style>
<path class="st21" d="M935.99,551.72c1.63,39.15-0.36,79.65-16.84,115.2c-0.87,1.87-1.79,3.8-1.8,5.87c0,1.94,0.81,3.78,1.77,5.46
	c5.96,10.4,18.75,16.4,30.56,14.34c2.22-0.39,4.65-1.23,5.65-3.25c0.69-1.39,0.54-3.02,0.48-4.57
	c-0.73-17.36,10.35-32.66,16.62-48.86c7.31-18.92,8.13-39.75,14.15-59.12c4.85-15.6,13.14-30.63,12.99-46.96
	c-0.01-1.35-0.16-2.87-1.19-3.74c-0.77-0.65-1.85-0.77-2.86-0.85c-11.24-0.91-22.54-1.17-33.81-0.78
	c-5.26,0.18-10.77,0.58-15.23,3.38C939.23,532.35,935.57,541.64,935.99,551.72z"/>
<path class="st22" d="M918.22,665.96c-8.07,14.4-16.2,28.94-20.88,44.77c-3.25,10.99-4.78,22.4-6.9,33.67
	c-2.78,14.76-6.59,29.31-10.4,43.84c-7.04,26.86-14.11,53.83-24.79,79.46c-3.98,9.55-8.5,19.09-9.66,29.37
	c-1.16,10.28,1.75,21.73,10.11,27.83c8.54,6.23,20.17,5.41,30.65,4.02c2.35-0.31,5.22-1.12,5.64-3.45c0.26-1.42-0.58-2.78-1.33-4.01
	c-7.59-12.41-10.25-27.4-9.38-41.92c0.87-14.52,5.11-28.65,10.51-42.15c11.84-29.64,29.25-56.72,42.38-85.8
	c8.83-19.57,15.71-40.03,20.48-60.97c-8.04,3.71-17.98,2.94-25.34-1.97C921.94,683.73,917.41,674.85,918.22,665.96z"/>
<path class="st23" d="M901.67,698.4c4.79,6.92,12.08,11.87,19.98,14.78c7.9,2.91,16.39,3.88,24.81,3.95"/>
<path class="st23" d="M926.09,715.38c-1.57,4.22-2.77,8.59-3.59,13.02"/>
<path class="st24" d="M913.49,746.58c-2.4-3.93-2.74-9.05-0.88-13.26c0.66-1.5,1.6-2.9,2.91-3.89c1.3-0.99,3-1.52,4.61-1.21
	c2.88,0.55,4.7,3.61,4.96,6.53c0.31,3.5-1.07,6.98-3.13,9.82c-1.07,1.48-2.39,2.87-4.08,3.55
	C916.18,748.81,914.61,748.39,913.49,746.58z"/>
<path class="st25" d="M913.07,746.53c-0.76-0.32-1.64,0.03-2.29,0.54c-0.65,0.5-1.19,1.16-1.91,1.57c-0.84,0.47-1.82,0.56-2.77,0.75
	c-1.72,0.34-3.36,1.05-4.79,2.06c-0.81,0.57-1.59,1.3-1.84,2.25c-0.25,0.96,0.24,2.16,1.21,2.37c0.48,0.1,0.97-0.05,1.44-0.2
	c2.52-0.8,5.03-1.59,7.55-2.39c0.44-0.14,0.92-0.28,1.37-0.16c0.51,0.14,0.87,0.59,1.14,1.05c1.07,1.81,1.33,4,2.24,5.9
	c0.74,1.55,1.93,2.89,3.39,3.82c1.54,0.98,3.97,1.26,4.85-0.33c-3.64-2.55-6.45-6.28-7.9-10.48c-0.14-0.42-0.18-1.04,0.25-1.14
	c0.13-0.03,0.26,0,0.39,0.03c2.84,0.7,5.56,1.91,7.98,3.56c0.38,0.26,0.81,0.55,1.27,0.48c0.43-0.06,0.76-0.41,1-0.77
	c1.6-2.39,0.43-6.13-2.25-7.18c-1.81-0.71-3.83-0.28-5.76-0.15S913.44,747.88,913.07,746.53z"/>
<path class="st24" d="M911.58,754.04c-1.08,1.86-2,3.81-2.7,6.16c-2.27-1.4-5.39-0.96-7.45,0.73c-1.79,1.46-2.81,3.7-3.23,5.97
	c-0.42,2.27-0.28,4.6-0.09,6.91c0.16,1.95,0.64,4.29,2.49,4.94c1.37,0.48,2.86-0.24,4.01-1.12c4.32-3.27,6.54-9.09,5.5-14.4
	C909.81,761.72,909.2,760.16,911.58,754.04z"/>
<path class="st26" d="M1022.02,535.67c1.8,16.01,1.44,32.18,1.09,48.28c-0.74,33.34-1.48,66.67-2.21,100.01
	c12.04,7.18,28.16,6.86,39.91-0.79c-6.33-25.26-1.49-51.93,5.34-77.06c6.83-25.13,15.7-50,17.51-75.97c0.08-1.1,0.09-2.35-0.67-3.15
	c-0.59-0.62-1.48-0.8-2.32-0.95C1060.34,522.58,1038.89,526.17,1022.02,535.67z"/>
<path class="st25" d="M900,778.44c-1.6,0.05-1.17,3.84-2.16,5.09c-2.57-4.72-5.68-9.15-9.25-13.17c0.16,2.01,0.33,4.02,0.49,6.03
	c0.03,0.34,0.06,0.68,0.22,0.98c0.2,0.37,0.57,0.61,0.91,0.84c1.86,1.23,3.6,2.66,5.16,4.25c-2.78-0.61-5.7-0.64-8.49-0.08
	c-0.49,0.1-1.04,0.26-1.29,0.69c-0.55,0.96,0.83,2.02,0.74,3.12c3.4-0.58,6.85-0.89,10.3-0.92c0.43,0,0.89,0.01,1.23,0.27
	c0.34,0.26,0.48,0.69,0.59,1.1c0.74,2.63,1.29,5.43,2.98,7.58c1.69,2.15,5.02,3.33,7.21,1.69c-4.39-2.01-7.83-5.98-9.19-10.61
	c3.81,0.81,7.47,2.31,10.76,4.39c0.74-2.02,0.89-4.25,0.43-6.35c-3.71,0.41-7.47,0.37-11.17-0.12
	C899.77,781.75,901.12,778.4,900,778.44z"/>
<path class="st24" d="M897.22,786.24c-0.56,1.44-1,2.92-1.92,4.56c-2.92-0.89-6.23,0-8.56,1.98c-2.32,1.98-3.7,4.94-4.1,7.97
	c-0.28,2.1-0.1,4.32,0.89,6.18s2.91,3.32,5.02,3.4c1.7,0.07,3.34-0.74,4.66-1.82c2.74-2.25,4.3-5.68,4.96-9.16
	c0.4-2.09,0.45-4.43-0.79-6.16C896.74,792.28,895.75,791.59,897.22,786.24z"/>
<path class="st25" d="M887.61,810.49c-2.33-0.38-1.4,4.52-2.49,6.14c-2.54-4.32-5.44-8.43-8.66-12.27c-0.1,1.85-0.2,3.7-0.3,5.55
	c-0.03,0.49-0.05,1,0.17,1.44c0.16,0.33,0.44,0.58,0.71,0.82c1.67,1.5,3.34,3,5.01,4.51c-2.47,1.36-4.96,2.74-7.14,4.54
	s-4.05,4.06-4.96,6.74c5.04-2.62,8.81-7.49,14.2-9.27c0.34-0.11,0.7-0.21,1.04-0.12c0.35,0.1,0.62,0.38,0.87,0.65
	c3.51,3.85,7.02,7.7,10.52,11.55c-0.16-2.03,0.33-4.11,1.37-5.86c-2.83-0.89-5.36-2.7-7.12-5.09c2.08,0.81,4.16,1.62,6.24,2.42
	c1.51-1.34,2.76-2.96,3.67-4.76c-4.14,0.15-8.4,0.28-12.31-1.09c-0.28-0.1-0.58-0.22-0.76-0.46c-0.16-0.22-0.19-0.51-0.2-0.78
	C887.39,813.68,889.29,810.76,887.61,810.49z"/>
<path class="st27" d="M936.58,224.67c-4.53-1.73-9.34-2.74-14.19-2.97c-1.44-0.07-2.93-0.06-4.24,0.52c-1.3,0.58-2.3,1.66-3.26,2.72
	c-6.68,7.36-13.42,14.8-18.34,23.44c-2.67,4.7-4.77,9.7-6.81,14.71c-6.97,17.17-13.24,34.62-18.78,52.29
	c-1.24,3.96-2.46,8.19-1.41,12.21c0.68,2.59,2.25,4.86,3.97,6.91c5.37,6.4,12.56,11.26,20.49,13.88
	c-0.65-5.33-1.31-10.66-1.96-15.99c-0.07-0.59-0.13-1.24,0.2-1.73c0.42-0.62,1.28-0.73,2.04-0.77c8.81-0.46,17.67,0.22,26.31,2
	c1.47,0.3,3.08,0.72,3.96,1.94c0.67,0.92,0.78,2.12,0.88,3.25c0.35,4.25,0.7,8.5,1.05,12.75c0.07,0.79,0.16,1.65,0.69,2.23
	c0.58,0.63,1.52,0.77,2.37,0.85c3.44,0.33,7.27,0.34,9.9-1.91c3.22-2.74,3.3-7.6,3.08-11.82c-0.78-15.12-2.07-30.22-3.87-45.25
	c0.61,8.16,1.25,16.43,3.96,24.14c2.09,5.95,5.35,11.4,8.03,17.1c5.21,11.07,8.23,23.34,7.4,35.54
	c-0.83,12.21-5.73,24.32-14.63,33.65c-17.36,42.27-32.59,85.42-45.62,129.22c-1.17,3.94-2.34,8.09-1.48,12.11
	c1.83,8.64,11.58,12.66,20,15.3c4.31,1.35,8.74,2.72,13.25,2.51c1.28-0.06,2.62-0.27,3.66-1.02c2.18-1.57,2.26-4.71,2.27-7.39
	c0.03-6.15,0.99-12.67,4.96-17.37c5.32-6.31,14.57-7.61,22.79-6.88c8.22,0.73,16.39,3.04,24.6,2.2c6.3-0.65,12.45-3.15,18.77-2.62
	c7.14,0.59,13.38,4.95,20.26,6.95c10.23,2.97,21.27,0.56,31.21-3.26c4.42-1.7,8.77-3.68,13.41-4.57c4.74-0.9,9.6-0.64,14.42-0.61
	c17.27,0.09,34.56-2.99,49.97-9.83c4.01-1.08,8.86-3.18,8.93-7.33c0.03-1.58-0.72-3.06-1.46-4.45
	c-11.47-21.52-27.42-40.26-41.29-60.32c-14.33-20.73-26.45-42.89-38.55-65c-3.01-5.5-6.02-11.02-8.29-16.86
	c-8.66-22.3-5.77-47.23-2.01-70.85c0.95,15.96,4.35,31.76,10.04,46.7c1.96-9.91,12.45-16.39,22.54-16.71
	c10.09-0.33,19.71,4.18,28.33,9.43c2.85,1.74,5.78,3.62,9.61,3.97c-0.77-12.29-9.14-22.56-14.2-33.78
	c-2.36-5.23-4.01-10.76-6.26-16.04c-3.61-8.49-8.69-16.25-13.74-23.97c-4-6.11-8-12.22-12-18.32c-2.24-3.42-4.52-6.89-7.54-9.64
	c-4.87-4.44-11.38-6.73-17.91-7.58c-6.53-0.85-13.15-0.38-19.72,0.1c1.88,6.9,3.75,13.8,5.81,20.85
	c-5.25,2.26-10.51,4.52-15.76,6.77c-7.67,3.3-15.51,6.64-23.83,7.39c-1.47,0.13-2.97,0.18-4.43-0.06c-1.74-0.29-3.39-0.99-5.04-1.6
	c-10.93-4.06-23.11-4.7-33.67-1.56c-3.17-6.4-4.87-13.41-7.51-20.05C945.34,233.55,941.67,226.61,936.58,224.67z"/>
<path class="st28" d="M893.9,330.47c0.69,14.09,1.38,27.17,2.07,41.26c0.21,4.37,0.29,8.71,3.95,11.11
	c3.31,2.16,8.09,1.26,12.05,1.16c18.94-0.51,37.81,2.64,56.78,2.12c3.76-0.1,7.61-0.41,11.19,0.75c2.75,0.89,5.14,2.59,7.5,4.26
	c5.01,3.57,10.09,7.2,14.03,11.93c1.85,2.22,3.46,4.69,5.75,6.44c1.27,0.96,2.74,1.71,3.71,2.97c1.55,2.01,1.47,4.79,2.21,7.22
	c0.74,2.43,3.37,4.82,5.57,3.57c-1.45-9.01-3.27-18.08-5.31-26.98c4.2,3.01,7.36,7.62,8.66,12.62c0.85,3.26,0.95,6.66,1.64,9.96
	c0.69,3.29,2.09,6.65,4.85,8.58c0.11-3.53-0.34-7.42-0.34-10.83c1.34,1.16,2.43,2.58,3.77,3.74c0.18-4.67,0.36-9.33,0.54-14
	c0.07-1.71,0.13-3.45-0.35-5.1c-0.6-2.06-2-3.77-3.14-5.59c-1.98-3.16-3.28-6.82-5.89-9.49c-2.74-2.8-6.58-4.16-10.02-6.03
	c-5.24-2.85-10.43-5.98-15.63-8.9c-7.52-4.22-15.98-6.12-24.31-6.12c-13.8-0.34-27.54-2.95-40.51-7.68
	c-1.76-0.64-3.58-1.38-4.76-2.83c-1.4-1.73-1.61-4.12-1.52-6.34c0.1-2.22,0.43-4.48-0.1-6.64c-0.89-3.59-4-6.2-7.23-8.01
	C911.33,329.26,901.88,328.06,893.9,330.47z"/>
<path class="st28" d="M973.09,164.46c-1.41,12.26-3.57,24.63-8.97,35.73c-5.4,11.1-14.42,20.89-26.1,24.89
	c8.42,9.44,14.22,21.2,16.58,33.63c13.89-3.39,29.05-1.21,41.43,5.94c1.91-1.74,4.84-1.37,7.42-1.6c5.27-0.47,9.77-3.79,14.37-6.41
	c6.75-3.85,14.26-6.35,21.97-7.33c-5.1-11.54-10.32-23.67-9.44-36.26c-8.27-10.09-17.14-19.68-26.55-28.72
	C995.05,175.91,985.64,167.88,973.09,164.46z"/>
<path class="st28" d="M978.05,148.15c-4.67,18.98,1.45,40.23,15.49,53.83c3.34,3.24,7.34,6.16,11.96,6.69
	c4.8,0.55,9.47-1.54,13.8-3.68c11.02-5.45,22.03-11.85,29.35-21.72c10.08-13.6,11.61-32,8.3-48.59c-1.23-6.18-3.24-12.52-7.7-16.97
	c-4.45-4.44-10.77-6.44-16.94-7.63c-4.3-0.83-8.72-1.35-13.05-0.73c-4.12,0.59-8.02,2.19-11.79,3.94
	c-6.92,3.21-13.7,7.07-18.94,12.62C983.3,131.46,980.29,139.05,978.05,148.15z"/>
<path class="st18" d="M1041.19,92.49c-9.9-2.42-20.11-4.18-30.26-3.29c-10.15,0.89-20.33,4.65-27.45,11.95
	c-9.2,9.43-12.41,23.66-22.15,32.52c-4.1,3.73-9.2,6.35-12.82,10.54c-3.68,4.27-5.55,10.05-5.07,15.67c0.36,4.2,1.96,8.19,2.9,12.3
	c0.94,4.11,1.16,8.69-1.03,12.29c-2.05,3.39-5.81,5.27-9.18,7.35s-6.78,4.94-7.29,8.87c-0.48,3.72,1.78,7.19,2.64,10.84
	c1.32,5.58-0.96,11.84-6.21,16.24c7.23,0.92,14.51-1.16,21.33-3.74c4.58-1.73,9.15-3.73,12.92-6.87
	c6.83-5.68,10.34-14.5,11.84-23.25s2.19-11.21,2.98-20.06c0.41-4.52,2.21-10.51,4.34-17.63c1.47-4.9,5.35-8.52,9.42-11.62
	c5.98-4.56,10.54-11,16.31-15.75c2.92-2.41,6.02-4.9,9.74-5.62c2.45-0.48,4.97-0.14,7.47-0.02c6.06,0.29,12.19-0.72,18.01-2.85
	c0.03,5.35,5.02,9.24,7.09,14.18c1.31,3.12,1.42,6.59,1.5,9.97c0.12,4.64,0.24,9.28,0.36,13.92c0.1,3.85,0.19,7.77-0.84,11.48
	c-1.19,4.3-3.81,8.04-6.38,11.68c-3.43,4.86-6.92,9.79-11.54,13.53c-5.51,4.47-12.32,7.02-18.25,10.91c-2.39,1.57-4.88,3.84-4.7,6.7
	c0.16,2.5,2.3,4.36,4.36,5.77c11.79,8.08,26.76,11.38,40.85,9.01c-3.17-1.3-4.23-5.19-4.78-8.58c-2.23-13.61-5.31-31.63,7.74-36.1
	c5.89-2.02,10.5-9.49,10.27-15.21c-0.2-4.94-4.21-9.87-4.55-14.8c-0.28-4.06-1.19-9.18,0.25-12.99c3.02-8.01,2.54-17.88-2.06-25.03
	C1052.96,105.46,1048.42,94.26,1041.19,92.49z"/>
<path class="st29" d="M1006.43,262.49c6.23-2.81,12.08-6.4,18.27-9.27c6.2-2.87,12.91-5.05,19.73-4.76c3.07,0.13,6.37,0.91,8.3,3.3
	c1.8,2.24,1.97,5.33,2.04,8.2c0.22,8.56,0.15,17.65-4.38,24.91c-1.3,2.07-2.97,3.97-5.09,5.18c-2.51,1.44-5.47,1.85-8.36,1.9
	c-3.62,0.07-7.29-0.38-10.61-1.81c-3.13-1.34-5.83-3.49-8.49-5.6c-3.84-3.06-7.69-6.13-11.53-9.19c-0.6-0.48-1.23-1-1.45-1.73
	c-0.27-0.88,0.13-1.81,0.47-2.67C1006.46,268.02,1006.9,264.8,1006.43,262.49z"/>
<path class="st29" d="M999.17,263.41c2.4-0.78,5.65-1,7.98-1.75c0.66,2.99,0.6,6.15-0.19,9.11c-0.28,1.06-1.04,2.34-2.11,2.09
	c-0.28-0.06-0.53-0.23-0.77-0.4c-1.45-1.06-2.77-2.37-3.51-4.01C999.82,266.81,998.95,265.27,999.17,263.41z"/>
<path class="st29" d="M999.37,264.14c-9.81-5.08-20.79-7.89-31.84-8.15c-3.43-0.08-6.96,0.1-10.12,1.45
	c-3.16,1.35-5.91,4.07-6.48,7.45c-0.59,3.47,1.12,6.87,2.6,10.07c1.95,4.23,3.56,8.61,4.82,13.09c1.09,3.88,2.21,8.25,5.66,10.35
	c3.19,1.94,7.34,1.21,10.81-0.18c11.45-4.59,19.34-15.02,26.63-24.97c0.62-0.84,1.26-1.76,1.29-2.8c0.02-0.9-0.42-1.74-0.87-2.51
	C1000.96,266.38,1000.22,264.58,999.37,264.14z"/>
<path class="st29" d="M1004.24,291.73c-0.32,5.96,1.41,11.9,4.08,17.24s6.25,10.17,9.87,14.93c0.34,0.45,0.74,0.93,1.3,0.99
	c0.39,0.04,0.77-0.14,1.12-0.31c4.63-2.29,9.26-4.58,13.89-6.87c0.89-0.44,1.8-0.89,2.53-1.57c1.12-1.05,1.71-2.53,2.41-3.89
	c2.22-4.29,5.83-7.7,8.28-11.86s3.54-9.81,0.56-13.61c-4.44,2.4-9.96,2.03-14.66,0.19c-4.7-1.84-8.74-4.99-12.7-8.12
	c-3.96-3.13-7.97-6.32-12.63-8.25c-0.55-0.23-1.13-0.44-1.72-0.39c-0.61,0.05-1.16,0.37-1.62,0.77c-2.44,2.06-2.69,5.69-2.57,8.89
	C1002.55,284.63,1003.11,289.39,1004.24,291.73z"/>
<path class="st29" d="M971.38,299.58c-1,4.48-1.11,9.46,1.31,13.36c1.89,3.05,5.06,5.04,8.23,6.7c6,3.13,12.64,5.47,19.4,5.11
	c0.61-0.03,1.25-0.1,1.74-0.47c0.77-0.58,0.88-1.67,0.93-2.63c0.51-10.6,1.01-21.19,1.52-31.79c0.25-5.17,0.49-10.37-0.17-15.49
	c-0.1-0.76-0.24-1.58-0.78-2.13c-0.73-0.75-1.98-0.75-2.93-0.29c-0.94,0.46-1.65,1.28-2.34,2.06c-4.77,5.41-10.15,10.28-16.01,14.5
	c-2.77,1.99-5.68,3.87-7.96,6.42C972.04,297.47,970.44,300.86,971.38,299.58z"/>
<path class="st29" d="M995.77,268.71c-3.07-0.37-6.17-0.75-9.23-0.37s-6.14,1.59-8.16,3.93"/>
<path class="st29" d="M991.98,273.45c-2.59,2.34-4.89,5.02-6.81,7.94"/>
<path class="st29" d="M1011.15,267.38c4.25-1.24,8.83-1.38,13.15-0.4"/>
<path class="st29" d="M1017.75,272.56c2.05,0.9,4.09,1.8,6.14,2.7"/>
<path class="st30" d="M1028,416.39c-0.03-1.96-0.06-3.92-0.09-5.88c-0.02-1.26-0.04-2.54-0.37-3.75c-0.67-2.5-2.53-4.48-3.84-6.72
	c-1.74-2.98-2.54-6.46-4.46-9.32c-2.39-3.56-6.26-5.79-9.98-7.89"/>
<path class="st28" d="M1097.44,324.23c0.72,10.77,3.51,21.28,6.58,31.63c0.89,2.98,1.81,6.13,1.09,9.16
	c-0.75,3.15-3.13,5.61-5.44,7.87c-1.05,1.03-2.15,2.08-3.52,2.62c-1.52,0.6-3.21,0.5-4.84,0.39c-3.33-0.22-6.68-0.44-9.91-1.3
	c-7.83-2.08-14.66-7.83-22.76-8.17c-0.07,4.7-0.4,9.4-0.98,14.07c-0.47,3.71-1.1,7.43-0.87,11.16c0.52,8.46,5.36,16.01,7.69,24.11
	c0.2,1,0.25,2.02,0.13,3.03c-0.04,0.33-0.12,0.69-0.39,0.87c-0.2,0.13-0.45,0.13-0.68,0.11c-2.77-0.24-4.6-2.93-5.81-5.43
	c-2.94-6.1-4.65-12.84-8.49-18.43c0.88,8.57,1.42,17.18,1.61,25.8c0.06,2.85,0.08,5.72-0.49,8.51c-0.06,0.27-0.14,0.57-0.39,0.69
	c-0.35,0.18-0.74-0.13-1-0.43c-3.33-3.84-3.55-9.37-3.9-14.44c-0.46-6.64-1.42-13.25-2.87-19.75c-0.16,10.81-0.32,21.64-1.45,32.4
	c-0.21,1.95-0.53,4.08-1.99,5.4c-2.76-2.75-2.81-7.13-2.74-11.02c0.14-7.43,0.08-14.86-0.18-22.29c-0.06-1.85-0.23-3.91-1.59-5.17
	c-0.77,1.61-1.26,3.36-1.51,5.38c-1.97-2.24-3.67-4.71-5.05-7.35c-0.27-0.52-0.54-1.06-0.61-1.65c-0.12-1.02,0.35-2,0.73-2.95
	c2.48-6.21,1.26-13.23,2.16-19.86c0.84-6.16,3.6-12.04,7.6-16.5c3.26-3.36,8.37-3.84,12.99-4.59c4.78-0.77,9.47-2.01,14.13-3.35
	c0.68-0.19,1.39-0.41,1.85-0.95c0.39-0.46,0.54-1.08,0.57-1.68c0.16-3.13-2.33-6.05-1.78-9.14c0.46-2.59,2.87-4.3,5.14-5.63
	c2.57-1.5,5.32-2.9,8.03-2.97C1084.63,323.24,1091,323.31,1097.44,324.23z"/>
<path class="st30" d="M1056.93,351.91c1.99,1.3,3.4,3.45,3.82,5.79"/>
<path class="st30" d="M1058.72,367.87c-0.09-2.44,0.07-4.9,0.47-7.31"/>
<path class="st30" d="M1066.03,344.28c8.94-1.58,18.22-1.15,26.97,1.26"/>
<path class="st30" d="M1007.39,409.68c1.19,0.85,2.53,1.51,3.93,1.93c0.57,0.17,1.42,0.15,1.5-0.44c0.04-0.24-0.09-0.48-0.22-0.69
	c-1.37-2.32-2.74-4.63-4.12-6.95c-1.18-1.98-2.35-3.97-3.73-5.82c-1.98-2.66-4.35-5.01-6.71-7.34"/>
<path class="st30" d="M1013.77,396.92c-0.92-1.71-1.92-3.37-2.99-4.99c-1.59-2.38-3.49-4.76-6.18-5.72"/>
<path class="st24" d="M885.01,818.51c-0.39,1.75-0.85,3.48-1.29,5c-3.12-0.05-6.02,2.04-7.51,4.78c-1.49,2.74-1.74,6.01-1.34,9.1
	c0.16,1.21,0.42,2.44,1.09,3.46s1.82,1.79,3.03,1.72c0.94-0.05,1.78-0.59,2.51-1.17c2.67-2.14,4.54-5.26,5.16-8.62
	c0.31-1.68,0.31-3.45-0.22-5.07c-0.53-1.62-1.64-3.09-3.17-3.86"/>
<path class="st31" d="M877.36,843.25c-0.87,3.44-1.74,6.88-2.31,10.86c-2.07-0.82-4.55,0.07-6.06,1.71
	c-1.52,1.64-2.22,3.88-2.55,6.09c-0.47,3.18-0.09,6.83,2.33,8.95c0.69,0.61,1.6,1.07,2.51,0.95c0.85-0.11,1.55-0.7,2.19-1.26
	c1.16-1,2.35-2.04,3.03-3.41c0.61-1.21,0.77-2.59,0.85-3.94c0.18-3.36-0.27-7.01-2.58-9.46"/>
<path class="st23" d="M870.35,871.52c-0.72,3.9-1.35,7.82-1.91,11.75"/>
<path class="st32" d="M849.1,881.2c-2.13,8.99-3.73,18.4-1.74,27.43c1.99,9.03,8.3,17.63,17.28,19.84
	c5.14,1.27,10.54,0.37,15.72-0.72s10.44-2.36,15.71-1.81c5.27,0.55,10.66,3.32,12.72,8.2c1.76,4.16,0.82,8.89,0.44,13.39
	c-0.5,5.96,0.04,11.95,0.36,17.93c0.17,3.19,0.11,6.81-2.22,8.99c-1.23,1.15-2.9,1.69-4.53,2.14c-12.74,3.5-26.27,3.53-39.31,1.41
	c-4.78-0.78-9.78-1.98-13.31-5.29c-3.46-3.24-4.98-8.01-6.13-12.6c-0.45-1.78-0.89-3.64-2.07-5.05c-2.75-3.28-8.48-2.97-10.79-6.57
	c-1.41-2.19-1-5.04-0.54-7.6c1.65-9.16,3.3-18.32,4.95-27.48C837.72,901.83,840.12,889.58,849.1,881.2z"/>
<path class="st33" d="M820.8,905.5c6.66-1.71,12.71-5.19,18.54-8.85c5.83-3.65,11.56-7.53,17.92-10.16
	c6.35-2.63,13.49-3.95,20.15-2.23c3.13,0.8,6.28,2.46,7.71,5.35c0.57,1.14,0.83,2.41,1.05,3.67c0.89,5.03,1.25,10.16,1.05,15.27
	c-0.75-2.58-1.54-5.24-3.23-7.34c-3.11-3.87-8.61-4.97-13.56-4.54c-5.62,0.49-10.97,2.58-16.16,4.82
	c-8.7,3.75-17.21,7.96-25.47,12.61c-0.43,0.24-0.89,0.49-1.38,0.43c-0.76-0.09-1.22-0.85-1.56-1.53
	C824.57,910.46,823.27,907.92,820.8,905.5z"/>
<path class="st34" d="M1020.28,683.52c12.3,6.84,28.12,6.88,40.46,0.1c0.54,9.97,0.72,19.96,0.54,29.94
	c-0.19,10.1-0.75,20.23-2.67,30.15c-1.67,8.67-4.37,17.1-6.96,25.54c-13.12,42.72-23.88,87.75-16.28,131.79
	c0.45,2.59,0.85,5.59-0.89,7.57c-0.88,0.99-2.16,1.52-3.43,1.91c-5.79,1.76-12.28,1.03-17.54-1.95c-0.77-0.44-1.53-0.94-2.02-1.66
	c-0.6-0.87-0.75-1.96-0.87-3.01c-4.59-38.76,4.55-77.77,4.85-116.8c0.21-27.28-3.88-54.92,1.68-81.62
	C1018.59,698.46,1020.7,691.56,1020.28,683.52z"/>
<path class="st23" d="M1015.38,711.33c6.43,5.06,14.25,8.47,22.41,9.13c8.16,0.66,16.61-1.54,23.07-6.57"/>
<path class="st35" d="M1036.74,720.98c-0.44,6.71-0.88,13.41-0.9,20.84c-2.97-0.96-6.53,0.59-7.85,3.42
	c-0.89,1.9-0.8,4.09-0.69,6.18c0.12,2.32,0.25,4.72,1.23,6.83c0.98,2.11,3.03,3.9,5.36,3.85c3.08-0.06,5.2-3.09,6.37-5.94
	c1.19-2.88,1.96-6.08,1.22-9.1c-0.74-3.02-3.23-3.99-5.74-5.26"/>
<path class="st35" d="M1031.88,762.59c-0.29,5.87-0.58,11.73-0.97,18.33c-2.94,0.32-5.69,2.05-7.24,4.57
	c-1.55,2.52-1.86,5.76-0.81,8.52c1.32,3.49,5.66,6.1,8.87,4.21c2.4-1.41,3.1-4.48,3.58-7.22c0.39-2.22,0.77-4.51,0.25-6.69
	c-0.52-2.19-2.61-3.26-4.84-3.51"/>
<path class="st23" d="M1028.39,800.07c-0.3,4.11-0.59,8.23-0.89,12.34"/>
<path class="st35" d="M1027.34,812.77c-1.48,0.25-3.04,0.55-4.15,1.56c-0.55,0.51-0.95,1.17-1.23,1.87
	c-0.91,2.25-0.63,4.8-0.15,7.18c0.37,1.81,1.01,3.82,2.67,4.63c1.38,0.67,3.1,0.26,4.3-0.7c1.19-0.96,1.93-2.38,2.46-3.82
	c0.72-1.98,1.09-4.14,0.62-6.19C1031.38,815.25,1029.94,813.35,1027.34,812.77z"/>
<path class="st23" d="M1025.2,829.5c-0.34,3.66-0.49,7.34-0.43,11.01"/>
<path class="st35" d="M1024.58,841.17c-2.08-0.51-4.43,0.36-5.68,2.11c-0.79,1.12-1.13,2.49-1.37,3.84
	c-0.65,3.68-0.52,7.93,2.13,10.56c1.05,1.05,2.55,1.76,4.02,1.51c1.85-0.33,3.11-2.04,3.95-3.72c1.54-3.06,2.39-6.65,1.4-9.93
	c-0.23-0.76-0.56-1.5-1.05-2.13C1026.79,841.88,1024.84,841.23,1024.58,841.17z"/>
<path class="st23" d="M1022.21,859.91c-0.1,1.96-0.2,3.91-0.3,5.87"/>
<path class="st25" d="M1031.41,765.81c-2.55-1.79-5.24-3.4-8.02-4.81c-0.14,0.85-0.29,1.7-0.43,2.55c-0.05,0.31-0.1,0.65,0.08,0.91
	c0.13,0.19,0.37,0.29,0.59,0.38c2.15,0.86,4.29,1.71,6.44,2.57c-2.92,1.55-6.13,3.44-6.98,6.64c-0.07,0.28-0.13,0.59,0.01,0.85
	c0.37,0.68,1.4,0.22,1.98-0.3c1.39-1.27,2.78-2.53,4.17-3.8c1.39-1.26,3.08-2.62,4.92-2.23c1.04,0.22,1.88,0.97,2.64,1.71
	c3.86,3.76,7.21,8.04,9.94,12.68c0.71-2.54-1.12-5.03-2.84-7.04c-2.12-2.47-4.24-4.95-6.36-7.42c-0.2-0.23-0.41-0.52-0.33-0.81
	c0.07-0.24,0.3-0.38,0.52-0.5c3.3-1.74,7.2-2.31,10.86-1.58c-0.7-1.49-1.4-2.97-2.1-4.46c-2.89,1.41-5.86,2.65-8.9,3.73
	C1035.39,765.65,1032.7,766.72,1031.41,765.81z"/>
<path class="st25" d="M1027.86,806.63c-3.1-0.91-6.25-1.7-9.41-2.36c-0.29-0.06-0.63-0.11-0.85,0.09c-0.19,0.18-0.2,0.47-0.19,0.73
	c0.02,0.84,0.03,1.68,0.05,2.52c0,0.22,0.01,0.46,0.14,0.64c0.19,0.27,0.55,0.33,0.88,0.37c1.28,0.14,2.56,0.21,3.84,0.23
	c1.46,0.02,2.94-0.03,4.37,0.24c4.32,0.82,6.27,10.08,10.12,7.95c2.14-1.19-2-4.47-3.28-6.56c2.36-0.31,4.22,1.82,5.95,3.46
	c0.66,0.63,1.41,1.24,2.3,1.4s1.96-0.25,2.23-1.13c-2.86-2.18-5.71-4.36-8.57-6.54c-0.97-0.74-1.97-1.5-3.14-1.85
	C1030.57,805.33,1028.73,805.76,1027.86,806.63z"/>
<path class="st25" d="M1023.73,835.09c-2.59-1.57-5.4-2.77-8.33-3.56c-0.45-0.12-0.96-0.22-1.33,0.06c-0.32,0.24-0.4,0.67-0.47,1.06
	c-0.15,0.9-0.3,1.81-0.45,2.71c-0.05,0.27-0.07,0.6,0.14,0.78c0.15,0.13,0.36,0.13,0.56,0.13c2.17-0.02,4.33-0.05,6.5-0.07
	c-1.69,1.88-3.93,3.15-5.81,4.84c-1.87,1.69-3.43,4.11-3.01,6.6c3.26-3.11,6.66-6.07,10.2-8.86c0.64-0.5,1.34-1.03,2.15-1.08
	c1.11-0.07,2.06,0.74,2.87,1.51c3.2,3.03,6.3,6.17,9.3,9.4c-1.92-2.63-3.84-5.27-5.76-7.9c0.88-0.3,1.83,0,2.75,0.13
	s2.04-0.05,2.44-0.89c0.39-0.83-0.21-1.85-1.02-2.26s-1.78-0.39-2.69-0.4C1028.43,837.24,1025.3,836.05,1023.73,835.09z"/>
<path class="st36" d="M1009.77,883.13c-0.03-3.01-0.05-6.03-0.08-9.04c-0.01-0.87-0.01-1.77,0.34-2.57
	c0.43-0.98,1.33-1.67,2.24-2.23c4.31-2.63,9.81-3.22,14.58-1.55c6.93,2.42,11.48,8.88,17.14,13.55c5.37,4.43,11.98,7.33,18.87,8.3
	c-1.48,3.67-2.45,7.55-2.87,11.48c-6.15-1.42-11.91-4.45-16.56-8.71c-3.63-3.32-6.6-7.37-10.61-10.21
	c-3.5-2.48-7.71-3.93-11.98-4.15C1016.36,877.77,1011.12,879.53,1009.77,883.13z"/>
<path class="st25" d="M1008.04,881.83c-4.42,20.62-7.73,41.48-9.93,62.46c-0.66,6.33-0.82,13.72,4.01,17.86
	c2.33,1.99,5.42,2.81,8.44,3.33c8.3,1.43,16.93,0.98,25.04-1.31c2.1-0.59,4.19-1.32,5.94-2.61c1.87-1.38,3.24-3.34,4.27-5.43
	c3.59-7.26,3.2-15.89,1.34-23.78s-5.08-15.4-6.99-23.27c-1.89-7.8-2.51-15.98-5.72-23.33c-0.59-1.36-1.19-5.03-2.37-4.13
	c1.04,5.76,1.17,13.63,2.21,19.39c0.31,1.72,0.6,3.59-0.17,5.15c-1.23,2.49-4.46,3.05-7.23,3.32c-5.75,0.55-12.92,0.37-15.54-4.78
	c-0.82-1.62-1.01-3.47-1.18-5.28C1009.57,893.05,1008.97,886.67,1008.04,881.83z"/>
</svg>
