<?xml version="1.0" encoding="UTF-8"?>
<svg id="Layer_1" data-name="Layer 1" xmlns="http://www.w3.org/2000/svg" viewBox="0 0 1920 1080">
  <defs>
    <style>
      .cls-1 {
        fill: #fdebd7;
      }

      .cls-1, .cls-2, .cls-3, .cls-4, .cls-5, .cls-6, .cls-7, .cls-8, .cls-9, .cls-10, .cls-11, .cls-12, .cls-13, .cls-14, .cls-15, .cls-16, .cls-17, .cls-18 {
        stroke-miterlimit: 10;
      }

      .cls-1, .cls-2, .cls-3, .cls-4, .cls-5, .cls-9, .cls-10, .cls-11, .cls-12, .cls-13, .cls-16 {
        stroke: #fff;
      }

      .cls-2 {
        fill: #474364;
      }

      .cls-3 {
        fill: #f2aa56;
      }

      .cls-4 {
        fill: #4a4269;
      }

      .cls-5 {
        fill: #a36bac;
      }

      .cls-6, .cls-7, .cls-14, .cls-17, .cls-18 {
        stroke: #000;
      }

      .cls-6, .cls-15 {
        fill: none;
      }

      .cls-19 {
        fill: #eea652;
      }

      .cls-19, .cls-20, .cls-21, .cls-22 {
        stroke-width: 0px;
      }

      .cls-21 {
        fill: #ffbabd;
      }

      .cls-8 {
        fill: #252027;
        stroke-width: 3px;
      }

      .cls-8, .cls-15 {
        stroke: #a79d55;
      }

      .cls-9 {
        fill: #e68167;
      }

      .cls-10 {
        fill: #b7ad63;
      }

      .cls-12 {
        fill: #231b26;
      }

      .cls-13, .cls-17 {
        fill: #a79d55;
      }

      .cls-14 {
        fill: #bb6266;
      }

      .cls-22 {
        fill: #a975b5;
      }

      .cls-16 {
        fill: #271f24;
      }

      .cls-18 {
        fill: #fdf8f6;
      }
    </style>
  </defs>
  <path class="cls-2" d="m716.64,936.09c-6.9,20.66-15.17,40.85-24.76,60.41,23.34.93,46.68,1.85,70.02,2.78,2.91.12,5.99.19,8.54-1.2,5.42-2.95,5.7-10.48,5.4-16.65-1.07-21.94-.51-43.96,1.66-65.82.39-3.93.54-8.6-2.57-11.04-1.42-1.11-3.27-1.51-5.05-1.79-13.21-2.09-27.07.16-38.95,6.31-1.95,1.01-3.89,2.16-5.31,3.84-1.46,1.73-2.27,3.9-3.05,6.02-3,8.17-5.69,16.38-5.94,17.13Z"/>
  <path class="cls-8" d="m536.43,799.2c-47.55-10.15-90.78-39.24-118.08-79.47-41.76-61.52-43.66-145.06-14.24-213.34,29.42-68.29,86.92-121.92,152.45-157.07,65.52-35.15,138.92-53.18,212.41-64.46,48.37-7.42,97.37-12.07,146.23-9.43,57.08,3.09,113.44,16.15,166.85,36.52,32.09,12.24,63.96,27.67,87.49,52.68,38.89,41.33,48.94,101.81,50.71,158.53,1.7,54.27-2.99,110.48-28.25,158.54-29.79,56.7-84.96,95.86-142.45,124.08-4.29,2.11-8.84,4.21-13.61,3.95-5.03-.28-9.54-3.18-13.37-6.46-17.43-14.91-25.21-38.61-26.21-61.52s3.94-45.6,7.94-68.18c6.2-35.01,10.19-70.42,11.92-105.94.94-19.23,1.12-39.11-6.08-56.96-14.06-34.86-51.96-53.15-87.57-65.18-45.67-15.42-93.68-25.91-141.82-23.38-48.13,2.53-96.6,18.97-131.84,51.86-43.4,40.5-62.72,103.35-55.79,162.3,2.93,24.94,10.17,49.32,11.62,74.4,1.45,25.07-3.93,52.23-68.32,88.52Z"/>
  <path class="cls-1" d="m659.85,723.96c-1.8-9.41-15.51-12.24-23.16-6.47-7.65,5.77-9.92,16.34-9.55,25.92.29,7.54,2,15.31,6.65,21.25,6.31,8.07,17.36,11.53,27.53,10.32s19.5-6.53,27.2-13.29c16.66,28.26,45.57,48.08,76.9,57.78,31.34,9.71,64.99,9.96,97.46,5.32,16.66-2.38,33.14-6.02,49.26-10.89,20.15-6.08,40.09-14.29,56.11-27.94,11.4-9.71,20.46-21.87,28.51-34.49,25.11-39.38,41.41-88.28,27.44-132.84-9.01-28.74-29.43-52.25-49.32-74.85-21.54-24.47-44.02-49.66-73.77-63-38.42-17.24-84.67-11.67-121.55,8.65-36.88,20.32-65.08,53.95-85.2,90.94s-32.82,77.49-44.69,117.89c-1.24,4.21-2.44,8.86,10.18,25.69Z"/>
  <path class="cls-2" d="m752.94,814.86c-16.53,2.78-31.29,13.21-40.92,26.93-9.63,13.72-14.39,30.49-15.23,47.24-.47,9.22.25,18.67,3.78,27.2s10.19,16.06,18.89,19.12c8.93,3.14,18.87,1.33,27.76-1.94,11.73-4.32,22.81-11.43,29.67-21.88.07,33.64.14,67.27.22,100.91.02,10.59.05,21.24,1.9,31.67.4,2.24.96,4.62,2.63,6.17,1.39,1.29,3.36,1.78,5.26,1.89,9.82.53,18.13-7.97,27.94-8.56,13.29-.8,23.62,12.8,36.88,13.92,11.34.96,22.22-7.46,33.4-5.35,4.18.79,8.07,3.04,12.33,3.16,1.18.03,2.49-.16,3.23-1.08.51-.64.64-1.5.71-2.32.5-6.01-1.26-11.94-2.35-17.87-2.2-11.94-1.73-24.18-1.56-36.32.71-53.37-4.89-107.46-23.69-157.41-4.46-11.85-9.83-23.71-18.68-32.77-8.84-9.07-21.8-14.98-34.23-12.52-8.63,1.7-16.01,7.11-23.02,12.44-7.01,5.32-14.25,10.85-22.82,12.87-8.57,2.02-18.89-.52-22.1-5.49Z"/>
  <ellipse class="cls-10" cx="781.16" cy="898.33" rx="11.19" ry="11.47"/>
  <ellipse class="cls-10" cx="753.3" cy="962.24" rx="11.19" ry="11.47"/>
  <ellipse class="cls-10" cx="714.82" cy="985.94" rx="11.19" ry="11.47"/>
  <path class="cls-2" d="m878.81,855.65c3.14-20.23,11.93-39.56,25.12-55.23,5.2-6.17,11.47-12.01,19.32-13.85,6.47-1.52,13.28-.13,19.57,1.99,9.25,3.12,17.96,7.83,25.63,13.87,23.67,18.63,36.08,49.05,37.7,79.13.54,9.95-.05,20.18-3.86,29.38-3.82,9.2-11.29,17.28-20.9,19.88-2.62-25.36-6.9-50.55-12.78-75.36,13.43,46.66,14.88,95.8,16.24,144.33.11,3.94.2,8.01-1.22,11.69-2.18,5.65-8.1,9.63-14.15,9.54-6.15-.1-11.91-3.96-18.03-3.38-4.61.44-8.55,3.32-12.68,5.41-11.07,5.62-24.82,5.61-35.89-.02-1.77-.9-3.53-2-4.54-3.7-.81-1.37-1.06-3-1.24-4.59-1.67-14.02-.53-28.2-.85-42.31-.96-41.65-22.78-82.27-17.42-116.78Z"/>
  <circle class="cls-10" cx="725.87" cy="885.27" r="11.04"/>
  <circle class="cls-10" cx="770.47" cy="851.56" r="10.69"/>
  <circle class="cls-10" cx="824.42" cy="867.2" r="11.19"/>
  <circle class="cls-10" cx="869.27" cy="906.71" r="10.4"/>
  <circle class="cls-10" cx="820.25" cy="944.41" r="11.19"/>
  <circle class="cls-10" cx="827.19" cy="820.96" r="11.19"/>
  <circle class="cls-10" cx="797.81" cy="995.15" r="11.25"/>
  <circle class="cls-10" cx="861.65" cy="990.47" r="10.94"/>
  <circle class="cls-10" cx="836.16" cy="1022.86" r="11.74"/>
  <circle class="cls-10" cx="911.44" cy="830.91" r="9.96"/>
  <circle class="cls-10" cx="922.73" cy="906.71" r="10.4"/>
  <circle class="cls-10" cx="959.64" cy="867.2" r="11.19"/>
  <circle class="cls-10" cx="925.14" cy="973.07" r="10.83"/>
  <circle class="cls-10" cx="970.29" cy="940.46" r="10.65"/>
  <path class="cls-11" d="m870.45,381.99c-16.35-15.5-35.45-32.07-57.95-30.82-7.48.41-14.68,2.83-21.77,5.23-23.7,8.01-47.41,16.02-71.11,24.03-17.68,5.97-35.69,12.12-50.62,23.31-31.45,23.57-43.85,65.08-71.39,93.12-8.01,8.15-17.24,15.1-24.69,23.77-20,23.29-24.47,58.74-10.88,86.27,4.06,8.23,9.62,15.91,11.6,24.87,5.92,26.82-21.57,56.02-8.07,79.95,3.32,5.88,8.79,10.38,11.76,16.45,8.84,18.04-7.68,37.77-22.99,50.78-15.31,13.01-32.61,31.49-25.37,50.23-23.91,11.4-41.36,35.39-44.85,61.65-.49,3.65-.66,7.61,1.23,10.77,4.53,7.6,17.75,6.2,21.7,14.11,2.81,5.62-.95,12.15-4.44,17.38-18.71,28.04-33.56,58.65-43.99,90.7,43.25-14.2,87.15-28.52,132.63-30.71-7.8-13.22-10.57-29.32-6.04-43.18,12.72-1.9,25.49-6.63,34.34-15.96s12.86-23.91,7.36-35.54c-2.19-4.63-5.71-8.59-7.38-13.43s-.64-11.31,4.06-13.34c3.34-1.44,7.13-.13,10.73.34,14.2,1.87,27.28-10.58,30.57-24.52,3.29-13.94-.93-28.55-6.57-41.71s-12.79-25.87-15.77-39.88c-7.22-34,11.2-67.8,30.53-96.69,14.8-22.12,31.32-44.28,54.6-57.17,12.3-6.81,29.26-2.01,41.44-9.03,15.77-9.1,35.23-25.14,46.27-39.62,20.49-26.88,19.23-28.33,31.25-59.92,9.18,31.62,22.92,39.59,39.5,68.04,16.58,28.45,44.65,42.53,76.03,52.51,10.52,3.34,22.81,5.83,28.39,15.35,2.93,5,3.34,11.05,3.47,16.84.98,44.27-10.63,88.74-33.12,126.88-3.26,5.54-6.89,11.82-5.13,18,1.49,5.22,6.36,8.58,10.5,12.09,15.19,12.88,23.62,33.32,21.93,53.16-1.71,19.97-12.29,42.38-.14,58.33,3.3,4.33,8.18,7.86,9.35,13.18.88,4.01-.59,8.12-2.04,11.97-5.59,14.82-11.18,29.63-16.77,44.45-1.94,5.15-3.91,10.79-2.21,16.03,3.08,9.53,15.48,11.54,25.49,11.53,35.48-.04,70.95-4.48,105.35-13.18-.34-15.6-5.96-31.04-15.73-43.21-4.86-6.05-10.99-11.89-11.91-19.6-2.05-17.17,21.93-26.89,24.89-43.93,4.68-26.95-43.87-40.72-39.16-67.66.73-4.15,2.75-7.94,4.04-11.94,4.93-15.24-2.24-33.47-16.23-41.27-4.14-2.31-8.83-3.83-12.21-7.16-8.48-8.34-4.37-22.93,2.53-32.62,6.9-9.69,16.36-18.62,17.75-30.43.81-6.9-1.32-14,.14-20.79,2.25-10.44,12.13-17.25,17.67-26.38,8.7-14.34,5.81-32.84.19-48.64-5.62-15.8-13.77-31.1-14.95-47.84-1.36-19.28,6.65-39.21.69-57.59-6.81-21.01-29.09-32.27-43.48-49.02-8.31-9.68-14.01-21.3-21.27-31.79-28.99-41.86-84.95-62.98-129.73-46.74Z"/>
  <path class="cls-11" d="m1006.58,980.87c-3.91,11.69-6.68,23.76-8.27,35.99"/>
  <path class="cls-11" d="m1033.46,983.14c-.25,10.59-.5,21.18-.75,31.78"/>
  <path class="cls-11" d="m1054.21,983.9c3.25,9.08,6.5,18.15,9.75,27.23"/>
  <path class="cls-11" d="m1078.18,982.73c5.37,6.7,10.07,13.95,13.98,21.59"/>
  <path class="cls-11" d="m494.52,980.69c-2.05,8.12-4.1,16.25-6.15,24.37"/>
  <path class="cls-11" d="m513.78,974.46l.93,25.03"/>
  <path class="cls-11" d="m542.83,970.67c1.43,6.79,2.87,13.57,4.3,20.36"/>
  <path class="cls-11" d="m561.37,969.23c3.98,6.87,7.97,13.74,11.95,20.61"/>
  <path class="cls-13" d="m632.94,490.49c-11.82-25.19-16.29-53.76-12.73-81.36.87-6.78,2.25-13.6,5.34-19.7.72-1.42,1.6-2.86,3-3.62,2.31-1.25,5.31-.14,7.08,1.8s2.62,4.51,3.54,6.97c5.95,15.94,16.49,30.14,30.04,40.43,2.2,1.67,4.52,3.29,6.11,5.55,1.57,2.24,2.31,4.95,2.76,7.65,3.1,19-9.39,39.33-27.74,45.16-3.6,1.14-7.48,1.77-11.14.85s-7.03-3.66-6.24-3.73Z"/>
  <path class="cls-4" d="m618.6,423.09c6.54-.83,12.51-4.21,17.72-8.26,3.13-2.43,6.06-5.13,8.73-8.06,2.19,4.64,4.89,9.04,8.05,13.08-6.52,6.42-13.94,11.91-21.99,16.25-2.97,1.6-6.32,3.09-9.6,2.33-.77-.18-1.55-.51-1.97-1.18-.35-.55-.39-1.24-.42-1.9-.16-3.96-.24-7.93-.52-12.28Z"/>
  <path class="cls-4" d="m623.74,464.93c15.9-8.12,29.83-18.61,38.55-34.18,4.31,2.29,8.68,6.31,12.29,8.23,2.55,1.36,1.68,5.58.87,8.35s-2.41,5.24-4.01,7.65c-4.68,7.04-9.59,14.02-15.84,19.7s-14.02,10.03-22.43,10.86c-.51.05-1.06.08-1.52-.14-.67-.33-.98-1.09-1.24-1.79-2.22-5.99-4.44-11.98-6.65-18.67Z"/>
  <path class="cls-13" d="m978.67,441.54c19.53-15.17,37.77-31.98,54.48-50.21,2.13,22.44,4.11,45.95-4.61,66.74-2.1,5-4.91,9.89-9.23,13.17-6.35,4.82-15.23,5.42-22.81,2.93-7.58-2.48-13.99-7.69-19.37-13.57-1.92-2.1-3.8-4.43-4.31-7.23-1.23-6.73,5.57-11.94,5.86-11.83Z"/>
  <path class="cls-4" d="m1010.3,414.59c7.69,3.94,15.92,6.82,24.4,8.51.57,3.89.17,7.92-1.14,11.63-.11.31-.24.64-.52.82-.27.17-.61.17-.93.15-4.34-.27-8.43-2-12.43-3.7-3.23-1.38-6.47-2.75-9.67-4.19-2.79-1.25-5.68-2.66-7.45-5.15-.21-.29-.41-.62-.41-.98,0-.63.55-1.11,1.07-1.48,2.6-1.91,5.2-3.82,7.1-5.61Z"/>
  <path class="cls-4" d="m992.41,430.29c11.86,8.8,24.74,16.23,38.29,22.1-1.01,2.61-2.02,5.23-3.03,7.84-.75,1.94-1.59,4-3.29,5.19-2.16,1.51-5.08,1.2-7.63.56-8.82-2.22-16.47-7.58-23.89-12.84-4.51-3.2-9.1-6.47-12.44-10.89-.36-.48-.73-1.06-.58-1.65.11-.42.45-.73.78-1.01,3.95-3.35,8.17-6.38,11.79-9.3Z"/>
  <path class="cls-6" d="m737.67,633.77c4.22-7.42,10.6-13.5,17.88-17.95,11.47-7.02,25.31-10.09,38.67-8.57"/>
  <path class="cls-20" d="m738.45,677.26c-6.51-1.94-12.53-5.52-17.34-10.32,5.09-.54,10.3.1,15.11,1.85,4.73-20.01,24.64-35.3,45.19-34.7,3.32-6.64,7.2-13.01,11.58-19.01.21,7.86,2.66,15.64,6.97,22.21,2.03,3.09,4.45,5.9,6.56,8.94,5.99,8.62,9.33,19.06,9.46,29.55-1.53-11.17-4.88-23.01-13.79-29.91-10.88-8.43-27.17-6.58-38.64,1.02-11.47,7.6-19.03,19.77-25.11,30.38Z"/>
  <path class="cls-7" d="m746.47,707.2c6.5,6.24,14.11,11.34,22.35,14.99-2.9,17.33-4.27,34.91-4.09,52.48,2.26-16.37,7.37-32.35,15.03-47,.97-1.86,2.04-3.76,3.71-5.04,2.19-1.67,5.06-2.04,7.71-2.8,5.24-1.52,9.92-4.86,13.06-9.32-10.03,4.99-21.07,10.11-32,7.67-3.41-.76-6.61-2.24-9.78-3.7-5.55-2.56-11.1-5.13-15.98-7.28Z"/>
  <path class="cls-22" d="m763.14,706.77c-5.61-9.65-8.79-21.02-7.17-32.06,1.61-11.04,8.52-21.58,18.79-25.96,10.27-4.38,23.62-1.46,29.92,7.75,5.63,8.23,4.94,19.18,2.87,28.94-1.14,5.37-2.66,10.75-5.49,15.46-2.83,4.71-7.1,8.74-12.36,10.33-4.16,1.26-8.64.94-12.92.18-5.48-.97-11.91-1.65-13.64-4.63Z"/>
  <path class="cls-6" d="m869.56,713.26c2.01.85,4.03,1.69,6.04,2.54"/>
  <path class="cls-14" d="m855.26,768.91c.98-9.94,2.15-20.39,7.95-28.52.73-1.02,1.57-2.03,2.71-2.55s2.65-.43,3.46.53c.92,1.08.62,2.7.26,4.07-1.12,4.25-2.35,8.48-3.69,12.67-2,6.28-4.77,13.09-10.69,13.81Z"/>
  <path class="cls-18" d="m858.87,751.65c.43-2.95.89-5.99,2.39-8.56s4.32-4.62,7.28-4.3c.45,3.76.85,7.79-.96,11.12s-6.79,5.12-8.72,1.75Z"/>
  <path class="cls-20" d="m900.3,676c.45-9.49,5.42-18.46,12.5-24.8s16.11-10.23,25.39-12.27c.9-.2,1.87-.42,2.48-1.11.52-.59.67-1.41.82-2.19,1.54-8.04,4.98-15.7,9.96-22.2-2.1,5.71-3.46,12.23-.93,17.76,2.35,5.15,7.51,8.29,11.98,11.75,4.46,3.46,7.92,8.24,10.77,13.11,2.57,4.4,4.66,7.27,5.38,13.68,5.65-2.29,12.11-2.54,17.92-.69-8.91,3.35-18.38,7.13-23.77,14.98,1.33-9.57-1.32-19.71-7.45-27.18-6.13-7.47-15.72-12.08-25.38-11.84-4.5.11-8.94,1.22-13.11,2.92-12.03,4.92-21.83,15.03-26.56,28.07Z"/>
  <path class="cls-7" d="m914.31,720.33c6.34,4.62,14.32,6.76,22.17,6.57,7.84-.19,15.54-2.63,22.41-6.43-5.22,3.44-10.44,6.88-15.66,10.32-1.89,1.25-3.81,2.52-5.29,4.23-2.17,2.51-3.24,5.76-4.39,8.86-2.47,6.65-5.58,13.06-9.27,19.12-.08-10.67-.15-21.34-.23-32.02,0-.55-.01-1.13-.25-1.63-.33-.68-1.04-1.09-1.72-1.44-3.28-1.67-7.41-3.6-7.75-7.59Z"/>
  <path class="cls-22" d="m913.46,700.88c-2.13-9.52-1.22-19.69,2.57-28.68,2.69-6.38,6.9-12.25,12.66-16.12,5.75-3.86,13.13-5.54,19.8-3.69,7.95,2.2,14.01,9.13,16.74,16.91s2.52,16.32,1.16,24.45c-.58,3.46-1.37,6.91-2.72,10.15-2.71,6.47-7.79,12-14.19,14.88-6.4,2.88-14.08,2.96-20.38-.14-4.79-2.36-8.57-6.35-12.02-10.43-2.31-2.74-4.61-5.75-3.63-7.33Z"/>
  <path class="cls-19" d="m785.32,671.16c-1.36-2.13-3.68-3.42-5.97-4.46-1.84-.84-3.81-1.58-5.83-1.48-2.02.1-4.11,1.25-4.75,3.17-.65,1.96.33,4.06,1.34,5.87,1.91,3.4,4.04,6.67,6.37,9.79,1.47,1.97,3.13,3.97,5.41,4.89,3.71,1.5,7.95-.24,11.17-2.61,5.51-4.07,9.52-10.13,11.12-16.8.21-.86.36-1.83-.09-2.6-.34-.59-.98-.94-1.61-1.19-3.06-1.23-6.6-.71-9.6.65s-5.58,3.5-7.56,4.78Z"/>
  <path class="cls-19" d="m942.26,680.63c-1.67-1.43-3.38-2.88-5.36-3.82-1.99-.95-4.32-1.37-6.41-.66-4.02,1.37-5.69,6.54-4.51,10.62s4.41,7.22,7.7,9.9c2.32,1.89,4.76,3.67,7.48,4.91.87.4,1.84.74,2.77.55.75-.16,1.39-.64,1.97-1.13,3.77-3.13,6.87-7.01,9.56-11.11,1.23-1.88,2.4-3.86,2.86-6.06s.1-4.68-1.42-6.34c-1.97-2.14-5.41-2.35-8.11-1.27s-4.84,3.2-6.52,4.42Z"/>
  <path class="cls-21" d="m714.09,761.03c-10.86-7.48-13.91-23.99-6.89-35.15,7.02-11.16,22.72-15.64,34.81-10.37,12.09,5.27,19.45,19.35,17.44,32.39-.95,6.16-3.97,12.24-9.17,15.69-6.13,4.07-14.15,3.88-21.37,2.45-5.62-1.11-11.46-2.69-14.82-5.01Z"/>
  <path class="cls-21" d="m947.64,729.29c9.26-.67,18.75,2.61,25.62,8.86,2.17,1.98,4.13,4.31,5.06,7.1,1.54,4.63.03,9.68-1.75,14.23-2.21,5.66-5.05,11.42-10.06,14.86-5.83,4-13.63,4.06-20.4,2.04-6.28-1.88-12.36-5.77-14.95-11.79-2.43-5.64-1.41-12.23.9-17.92,2.96-7.31,7.9-16.81,15.58-17.37Z"/>
  <path class="cls-15" d="m534.78,784.46c-2.45-.74-4.89-1.47-7.34-2.21.14-.29.55-.42,7.34,2.21Z"/>
  <path class="cls-15" d="m515.22,777.31c-3.12-1.18-6.23-2.35-9.35-3.53-.36-.14-.8-.51-.57-.82"/>
  <path class="cls-15" d="m493.04,768.16c-3.01-1.21-5.92-2.7-8.67-4.42"/>
  <path class="cls-15" d="m472.06,755.7l-6.14-4.17"/>
  <path class="cls-15" d="m457.97,742.14c-2.07-2-4.13-4-6.2-6"/>
  <path class="cls-15" d="m441.04,726.08c-2.53-2.14-4.91-4.47-7.11-6.95"/>
  <path class="cls-15" d="m428.62,709.58c-1.97-2.61-3.8-5.33-5.46-8.14"/>
  <path class="cls-15" d="m418.31,689.76c-2.2-3.37-4.23-6.86-6.08-10.44"/>
  <path class="cls-15" d="m410.54,668.36c-1.58-3.42-2.76-7.02-3.53-10.71"/>
  <path class="cls-15" d="m404.02,646.87l-2.03-9.34"/>
  <path class="cls-15" d="m400.26,625.53c-.49-3.98-.98-7.96-1.47-11.94"/>
  <path class="cls-15" d="m397.89,600.69l-.15-8.02"/>
  <path class="cls-15" d="m401.98,581.95c-.02-3.36.35-6.72,1.1-10"/>
  <path class="cls-15" d="m405.24,560.64c.21-3.49.83-6.95,1.85-10.3"/>
  <path class="cls-15" d="m411.2,537.16c.79-4.12,1.9-8.17,3.29-12.12"/>
  <path class="cls-15" d="m419.9,510.87c1.17-4.09,2.71-8.08,4.58-11.9"/>
  <path class="cls-15" d="m432.28,490.25c1.12-3.91,2.84-7.64,5.08-11.03"/>
  <path class="cls-15" d="m444.93,468.83c1.9-3.18,3.8-6.36,5.7-9.54"/>
  <path class="cls-15" d="m457.31,450.65c2.02-3.46,4.35-6.73,6.95-9.78"/>
  <path class="cls-15" d="m473.65,434.66c2.58-3.42,5.56-6.55,8.85-9.3"/>
  <path class="cls-15" d="m491.24,417.21c3.47-3.62,7.1-7.07,10.89-10.36"/>
  <path class="cls-15" d="m511.08,400.62c3.33-3.46,7.01-6.58,10.95-9.31"/>
  <path class="cls-15" d="m532.31,384.91c4.55-3.53,9.45-6.61,14.61-9.19"/>
  <path class="cls-15" d="m555.45,370.12c3.43-2.03,6.99-3.84,10.65-5.43"/>
  <path class="cls-15" d="m579.97,359.27c4.5-2.81,9.3-5.14,14.29-6.94"/>
  <path class="cls-15" d="m606.06,347.86c5.25-2.11,10.59-3.98,16.01-5.62"/>
  <path class="cls-15" d="m637.89,338.21c4.03-2.13,8.35-3.71,12.8-4.7"/>
  <path class="cls-15" d="m665.85,329.79c4.81-1.94,9.62-3.89,14.43-5.83"/>
  <path class="cls-15" d="m695.03,319.9c5.65-1.3,11.31-2.59,16.96-3.89"/>
  <path class="cls-15" d="m724.78,312.66c4.43-1.05,8.93-1.77,13.47-2.15"/>
  <path class="cls-15" d="m750.82,309.05l11.81-1.47"/>
  <path class="cls-15" d="m773.86,306.65c4.88-.55,9.79-.9,14.71-1.04"/>
  <path class="cls-15" d="m800.41,304.45c5.53-1.61,11.17-2.84,16.87-3.65"/>
  <path class="cls-15" d="m835.54,302.46c6.61-.99,13.26-1.67,19.93-2.04"/>
  <path class="cls-15" d="m874.95,301.12c6.39-.8,12.83-1.21,19.27-1.23"/>
  <path class="cls-15" d="m918.65,298.12c5.96.15,11.91.55,17.84,1.19"/>
  <path class="cls-15" d="m953.99,302.68c6.05.85,12.11,1.7,18.16,2.55"/>
  <path class="cls-15" d="m985.2,306.55c6.13,1.46,12.26,2.92,18.39,4.38"/>
  <path class="cls-15" d="m1023.39,316.61c8.06,2.72,16.13,5.43,24.19,8.15"/>
  <path class="cls-15" d="m1062.03,330.8c8.14,3.32,16.28,6.64,24.42,9.96"/>
  <path class="cls-15" d="m1104.34,351.65c7.29,5.09,14.59,10.19,21.88,15.28"/>
  <path class="cls-15" d="m1135.83,715.13c-3.28,5.25-6.84,10.32-10.66,15.18"/>
  <path class="cls-15" d="m1108.11,743.51c-3.95,3.95-7.9,7.9-11.84,11.84"/>
  <path class="cls-6" d="m1079.75,767.83c-5.09,4.16-10.18,8.31-15.27,12.47"/>
  <path class="cls-3" d="m558.22,346.03c3.4-16.71,7.85-33.21,13.33-49.37,1.72-5.08,3.59-10.21,6.73-14.56,3.86-5.33,9.4-9.17,14.9-12.77,82.62-54.14,183.2-80.33,281.73-73.36,6.81.48,13.9,1.21,19.68,4.85,6.26,3.95,10.06,10.73,13.61,17.22,10.01,18.34,20.01,36.68,30.02,55.02-31.38-.92-61.32,1.32-92.71,1.63-16.13.16-30.44,1.21-46.44,3.27-14.61,1.88-33.9,4.1-48.25,7.43-64.08,14.85-127.01,27.97-192.6,60.64Z"/>
  <path class="cls-17" d="m601.52,307.46c.63-4.63-.73-9.93,2.16-13.59,1.14-1.44,3.14-2.42,4.82-1.69,1.07.47,1.77,1.52,2.22,2.6,1.03,2.5.96,5.3.85,8-.1,2.36-.33,4.97-2.05,6.6-1.19,1.13-3,1.55-4.57,1.07s-2.83-1.84-3.43-3Z"/>
  <path class="cls-17" d="m643.19,297.97c-.7-3.01-1.39-6.04-1.45-9.13-.03-1.64.15-3.37,1.11-4.69s2.9-2.05,4.3-1.21c.82.5,1.3,1.4,1.68,2.28,1.61,3.65,2.44,7.65,2.41,11.64-.01,2.06-.59,4.57-2.57,5.17-1.23.37-2.6-.2-3.5-1.12s-1.76-1.99-1.98-2.94Z"/>
  <path class="cls-17" d="m680.84,288.52c-.27-2.72-1.19-5.34-1.73-8.02s-.7-5.58.47-8.05c.41-.87,1.13-1.75,2.09-1.77.4,0,.8.14,1.16.32,3.31,1.65,4.49,5.7,5.26,9.32.41,1.92.8,3.85,1.17,5.79.24,1.28.47,2.64,0,3.85-.56,1.4-2.12,2.33-3.62,2.15s-2.8-1.43-4.79-3.58Z"/>
  <path class="cls-17" d="m716.31,277.45c-.3-2.47-1.09-4.86-1.54-7.31s-.52-5.08.54-7.34c.83-1.75,2.69-3.27,4.57-2.79,1.78.46,2.67,2.42,3.22,4.17,1.54,4.91,2.32,10.06,2.34,15.21,0,1.12-.03,2.28-.55,3.27s-1.64,1.75-2.73,1.49c-.67-.16-1.2-.67-1.69-1.17-1.46-1.49-3.83-2.75-4.17-5.55Z"/>
  <path class="cls-17" d="m754.64,272.45c-.84-3.88-1.32-7.83-1.41-11.8-.03-1.32-.01-2.68.48-3.9s1.57-2.3,2.88-2.42c1.65-.15,3.07,1.18,3.96,2.58,1.8,2.83,2.44,6.25,2.73,9.59.17,1.92.23,3.9-.37,5.73s-2.01,3.5-3.88,3.94-3.75-.76-4.39-3.73Z"/>
  <path class="cls-17" d="m793.86,266.93c-1.63-4.48-3.28-9.12-2.94-13.88.12-1.64.5-3.32,1.51-4.62s2.77-2.11,4.34-1.64c1.92.57,2.88,2.67,3.5,4.58,1.46,4.56,2.25,9.34,2.34,14.13.03,1.39-.07,2.94-1.07,3.9-1.09,1.04-2.9.97-4.22.24s-2.26-1.98-3.47-2.71Z"/>
  <path class="cls-17" d="m832.79,264.88c-1.76-5.2-3.52-10.85-1.81-16.07.59-1.81,1.88-3.67,3.77-3.82,2.47-.19,4.09,2.55,4.7,4.95,1.04,4.13.98,8.44.91,12.69-.03,2.02-.4,4.53-2.31,5.18-1.75.6-4.38-.34-5.26-2.94Z"/>
  <path class="cls-17" d="m875.9,262.7c-2.05-5.34-4.14-11-3.19-16.64.28-1.67,1.02-3.51,2.62-4.07,2.03-.71,4.07,1.02,5.31,2.78,2.62,3.73,4.02,8.19,4.87,12.67.31,1.62.55,3.31.17,4.92s-1.49,3.14-3.09,3.57c-2.71.72-5.94-1.24-6.7-3.23Z"/>
  <path class="cls-5" d="m587.42,272.87c2.03-10.49,3.93-21.94-1.1-31.37-3.18-5.95-8.87-10.49-11.01-16.89-4.12-12.33,6.3-24.17,11.65-36.02,1.11-2.45,2-5.31.9-7.76-.93-2.07-3.03-3.3-5.01-4.39-41.01-22.6-84.29-41.08-128.98-55.06-3.24-1.02-6.69-2.02-9.99-1.22-4.91,1.19-8,5.91-10.6,10.24-4.84,8.08-9.87,17.1-8.2,26.38,1.08,6.01,4.86,11.15,7.12,16.82,3.51,8.78,3.25,19.01-.72,27.59-15.23-6.28-29.85-14.08-43.55-23.24-4.09-2.73-8.25-5.76-10.53-10.12-2.3-4.42-2.37-9.63-2.2-14.61.95-27.94,7.82-55.66,20.03-80.81,2.55-5.25,5.45-10.54,9.98-14.21,4.18-3.38,9.43-5.12,14.57-6.7,64.92-19.94,134.41-24.82,201.48-14.13,24.18,3.85,48.2,9.75,70.47,19.92,19.37,8.84,37.14,20.77,54.82,32.64,20.29,13.63,40.69,27.36,58.28,44.33,17.59,16.97,32.39,37.54,39.04,61.06-44.41-1.13-88.09,11.25-129.63,26.98-41.54,15.73-81.8,34.92-126.81,50.58Z"/>
  <path class="cls-16" d="m811.69,141.82c-47.52,7.77-93.85,21.9-138.68,39.48-32.09,12.58-64.23,27.46-88.55,51.88-.74.74-1.52,1.62-1.44,2.66.07.92.79,1.63,1.4,2.32,4.89,5.55,4.46,13.81,4.33,21.2-.01.79-.01,1.62.37,2.32,1.46,2.66,5.47.39,7.43-1.93,27.97-33.09,67.02-55.55,108.23-68.92,41.22-13.37,84.73-18.13,128.01-20.21-6.14-10.67-14.01-20.35-21.09-28.8Z"/>
  <path class="cls-9" d="m415.85,193.3c-15.77-2.03-31.85-1.73-47.53.9,15.32,10.21,30.97,19.91,46.93,29.09-10.81,18.07-21.62,36.14-32.43,54.21,20.11-12.4,40.92-23.65,62.3-33.69,4.93,20.6,9.86,41.19,14.79,61.79,5.71-21.19,9.76-42.83,12.08-64.65,16.88,9.13,33.77,18.26,50.65,27.39-10.94-13.08-21.57-26.42-31.87-40.01,12.05-6.92,24.28-13.51,36.69-19.77-12.8,1.4-25.72,1.63-38.56.69,9.79-18.42,19.57-36.84,29.36-55.26-18.48,12.68-36.45,26.11-53.84,40.24-2.26-19.09-7.27-37.84-14.82-55.52-5.98,16.36-10.6,33.22-13.81,50.34-.26,1.4-.64,2.98-1.9,3.65-.67.36-1.46.37-2.21.38-6.38.07-12.76.14-15.83.22Z"/>
  <path class="cls-12" d="m381.93,115.35c-5.53,7.89-5.46,18.28-5.18,27.92,14.4,9.69,31.16,15.85,48.41,17.78-2.11-3.9-2.18-8.67-1.02-12.95,1.16-4.28,3.44-8.17,5.89-11.87-17.27-3.28-33.73-10.73-48.09-20.88Z"/>
  <path class="cls-12" d="m431.78,47.77c-7.54,2.83-16.29,2.5-23.01,6.94-.81.54-1.62,1.18-1.95,2.09-.29.77-.2,1.62-.1,2.43,3.09,24.36,17.1,45.71,26.6,68.35,2.39-3.95,6.39-6.9,10.88-8.01s9.4-.37,13.36,2.01c-1.74-2.88-3.48-5.76-5.11-8.7-8.34-15.03-13.75-31.48-19.12-47.81-.88-2.68-1.76-5.37-2.24-8.15-.46-2.74-.52-5.54.67-9.16Z"/>
  <path class="cls-12" d="m471.31,39.49c9.53-2.65,19.4-4.08,29.29-4.26-3.04,6.39-4.09,13.52-5.1,20.52-.8,5.58-1.61,11.16-2.01,16.78-.37,5.17-.39,10.36-.32,15.55.2,15.75,1.19,31.49,2.99,47.15-8.46-2.53-16.91-5.05-25.37-7.58-.71-.21-1.47-.46-1.92-1.04-.48-.62-.51-1.47-.52-2.26-.17-25.45.69-50.91,2.59-76.29.22-2.99.47-6,.37-8.57Z"/>
  <path class="cls-12" d="m553.97,31.6c-29.75,31.47-52.08,68-65.27,106.8,9.01,3.23,17.94,6.59,26.81,10.08-.44-4.72,1.25-9.39,3.08-13.87,5.37-13.13,12.11-25.86,21.23-39.57,14.12-22.16,28.65-44.77,50.61-61.68-12.62-1.06-25.25-2.12-36.45-1.77Z"/>
  <path class="cls-12" d="m659.11,46.9c-25.98,12.65-46.92,33.59-66.04,55.26-14.93,16.93-29.38,35.11-36.16,56.64-.17.53-.33,1.11-.16,1.65.18.59.72.98,1.23,1.32,6.55,4.47,13.54,8.31,20.83,11.44,20.67-51.49,63.18-93.8,114.77-114.24-10.76-5.94-22.26-10.55-34.46-12.08Z"/>
  <path class="cls-16" d="m741.32,85.66c-30.96,4.47-58.63,21.47-83.75,40.12-11.36,8.43-22.4,17.28-33.45,26.13-11.67,9.35-23.45,18.81-32.72,30.54-6.03,7.63-10.93,16.16-14.49,25.21-2.79,7.11-4.26,16.39,1.54,21.36,6.14-11.82,15.38-21.71,24.72-31.2,19.6-19.92,40.29-38.91,63.36-54.69,23.06-15.78,48.61-28.31,75.87-34.46,7.2-1.62,14.73-2.89,20.85-7-7.31-6.71-15.88-12.06-21.94-16.01Z"/>
</svg>