<?xml version="1.0" encoding="UTF-8"?>
<svg id="Layer_1" data-name="Layer 1" xmlns="http://www.w3.org/2000/svg" viewBox="0 0 1920 1080">
  <defs>
    <style>
      .cls-1 {
        fill: none;
      }

      .cls-1, .cls-2, .cls-3, .cls-4, .cls-5, .cls-6, .cls-7 {
        stroke: #000;
        stroke-miterlimit: 10;
      }

      .cls-3 {
        fill: #fa8f03;
      }

      .cls-4 {
        fill: #fc9103;
      }

      .cls-5 {
        fill: #833101;
      }

      .cls-6 {
        fill: #fb9205;
      }

      .cls-7 {
        fill: #893302;
      }
    </style>
  </defs>
  <path class="cls-2" d="m910.69,230.96c8.49,2.71,9.52,10.7,14.28,16.05,1.06,1.19,2.28,2.47,3.87,2.64,1.02.11,2.04-.26,2.98-.69,7.97-3.65,13.53-12.05,13.78-20.81.25-8.76-4.83-17.46-12.58-21.56-5.62-2.97-12.17-3.55-18.51-3.98-14.63-.97-32.87.76-38.47,14.31-1.67,4.03-1.83,8.5-1.99,12.85-1.67,45.62-5.17,91.17-10.48,136.51-1.13,9.68-2.92,20.39-10.63,26.35-8.99,6.95-18.99,13.13-29.93,16.19-11.04,3.09-22.3,1.04-32.68,8.24-12.73,8.83-29.87,7.43-45.11,10.19-23.74,4.3-46.33,14.77-64.97,30.09-34.44,28.32-53.6,71.02-67.82,115.48-.64,35.25-.53,70.82,6.7,105.33,7.23,34.51,22.11,68.25,47.37,92.85,25.46,24.8,59.71,38.74,94.32,46.84,79.51,18.62,161.8,2.27,242.51-10.15,34.35-5.29,45.88-11.08,75.35-20.1,11.84-3.62,28.19-16.79,36.6-25.88,38.46-41.58,57.87-103.54,58.45-160.17.59-56.63-30.76-113.22-68.35-155.58-10.46-11.78-22.42-22.69-36.88-28.93-12.63-5.45-26.51-7.08-40.14-8.91-30.97-4.16-61.77-9.67-92.27-16.49-6.29-1.41-12.73-2.94-18.06-6.56-9.81-6.65-13.94-18.9-16.76-30.41-8.4-34.37-10.61-70.25-6.5-105.39.51-4.38,1.22-9,3.98-12.44s8.36-7.02,11.93-5.88Z"/>
  <path class="cls-5" d="m857.57,444.03c-7.51-9.78-22.45-10.05-34.06-5.88-13.93,5-25.74,14.88-34.85,26.54-9.11,11.66-15.71,25.08-21.41,38.74-9.21,22.06-16.28,45.02-21.06,68.44-1.18,5.79-2.23,11.71-1.65,17.59,1.01,10.16,6.9,19.41,14.7,26,7.79,6.59,17.36,10.75,27.12,13.74,11.53,3.53,25.08,5.21,34.78-1.96,6.95-5.13,10.35-13.72,12.82-22,13.66-45.74,9.25-95.36,22.74-141.15,2.39-8.11,3.96-16.06.87-20.07Z"/>
  <path class="cls-6" d="m810.69,487.11c-.32-3.53-4.71-5.48-8.14-4.56s-5.96,3.74-8.18,6.5c-13.89,17.25-23.71,37.76-28.44,59.4-.55,2.51-1.03,5.14-.41,7.63,1.36,5.52,7.38,8.39,12.86,9.94,4.63,1.31,9.37,2.21,14.15,2.69,3.13.32,6.44.42,9.26-.96,4.76-2.34,6.66-8.05,7.84-13.22,5.18-22.54,3.03-45.68,1.05-67.41Z"/>
  <path class="cls-5" d="m920.61,434.61c-14.92-1.38-31.05-1.66-43.56,6.58-14.6,9.62-20.24,28.15-22.92,45.43-4.51,29.12-3.57,58.83-.95,88.18,1.52,17.09,4.44,35.77,17.33,47.08,12.08,10.61,29.79,11.76,45.75,9.8,13.39-1.64,26.49-5.07,39.54-8.48,15.29-4,31.69-8.7,41.5-21.1,9-11.37,10.5-26.96,9.53-41.43-2.57-38.2-20.05-74.73-46.16-102.73-12.28-13.16-26.73-17.87-40.07-23.33Z"/>
  <path class="cls-3" d="m902.47,481.73c-6.5,3.41-9,11.3-10.69,18.45-3.94,16.61-6.83,33.54-7,50.61-.05,5.14.34,10.77,3.85,14.52,2.61,2.79,6.48,4,10.24,4.66,7.53,1.32,15.36.86,22.69-1.34,3.62-1.09,7.23-2.66,9.83-5.41,4-4.23,4.96-10.5,4.73-16.31-.4-10.47-3.97-20.54-7.86-30.28-5.75-14.4-13.37-29.62-25.79-34.9Z"/>
  <path class="cls-7" d="m767.77,427.05c-25.61,1.46-50.03,12.85-69.81,29.18-19.78,16.33-35.2,37.4-47.79,59.74-6.36,11.28-12.07,23-15.98,35.35-2.21,6.97-3.82,14.52-1.69,21.51,2.14,6.99,9.2,12.93,16.36,11.45,4.47-.92,8.03-4.48,10.16-8.51,2.13-4.04,3.08-8.57,4.15-13.01,13.97-58.05,54.15-109.27,104.61-135.71Z"/>
  <path class="cls-5" d="m799.13,428.85c-12.05-4.48-25.55.19-36.8,6.43-23.63,13.11-43.07,33.24-56.74,56.55-13.67,23.31-21.68,49.73-24.85,76.56-1.59,13.44-1.54,28.45,7.23,38.76,6.27,7.39,15.9,10.94,25.28,13.39,3.58.93,7.45,1.74,10.92.43,4.6-1.74,7.12-6.69,8.51-11.41,2.36-8,2.7-16.43,3.48-24.74,4.42-47.29,23.71-93.07,54.45-129.28,3.17-3.73,6.5-7.43,8.58-11.87,2.08-4.43,2.75-9.83-.04-14.84Z"/>
  <path class="cls-5" d="m954.72,441.9c-3.45-.97-4.1-5.69-3.11-9.14,2.73-9.45,12.45-15.63,22.22-16.76,9.77-1.13,19.55,1.91,28.59,5.77,35.55,15.16,64.63,43.56,84.04,76.99,9.77,16.83,17.42,36.58,12.74,55.47-1.77,7.16-5.25,13.81-9.48,19.84-5.24,7.47-11.84,14.21-20.03,18.23-8.19,4.02-18.12,5.06-26.48,1.41-8.35-3.65-14.24-11.46-17.95-19.78s-5.6-17.32-8.32-26.02c-2.88-9.24-6.71-18.15-10.53-27.04-8.03-18.69-16.24-37.68-29.39-53.2-7.74-9.13-17.05-16.88-22.31-25.77Z"/>
  <path class="cls-5" d="m1000.4,415.08c48.49,16.99,87.42,59.05,100.61,108.71,1.92,7.23,3.35,14.65,6.35,21.51,3.01,6.85,7.87,13.26,14.72,16.26,6.86,3,15.87,1.74,20.38-4.23,2.18-2.88,3.14-6.49,3.74-10.05,1.58-9.34.98-19.04-1.73-28.12-4.18-13.99-13.1-26.01-21.93-37.64-12.88-16.95-26.18-34.03-43.5-46.4-17.67-12.63-38.8-19.77-60.22-23.36-7.84-1.31-16.89-1.83-18.43,3.32Z"/>
  <path class="cls-3" d="m848.5,558.39c-2.85-2.25-6.36-3.77-9.66-2.26-3.3,1.51-5.59,4.58-7.53,7.64-6.19,9.76-10.36,20.79-12.17,32.2-.45,2.84-.58,6.22,1.61,8.1,1.06.92,2.48,1.28,3.85,1.58,11.39,2.53,23.24,2.97,34.78,1.29,1.6-.23,3.22-.51,4.67-1.22,3.57-1.74,5.54-5.84,5.71-9.81.17-3.97-1.16-7.85-2.71-11.5-4.48-10.55-9.51-18.88-18.55-26.01Z"/>
  <path class="cls-4" d="m664.24,632.46c-2.26-9.83-3.25-18.94-3.39-29.03-.08-6.01,4.15-14.16,9.56-11.52,1.64.8,2.68,2.45,3.57,4.05,5.96,10.61,9.94,22.56,18.18,31.51,8.24,8.95,22.99,13.78,32.59,6.31,2.55-1.99,4.58-4.71,7.48-6.14,4.54-2.23,10.13-.68,14.29,2.18,11.45,7.87,14.46,23.11,17.36,36.69,2.91,13.58,8.22,28.85,21.21,33.77,2.18.83,4.63,1.3,6.84.55,2.49-.85,4.22-3.08,5.66-5.29,6.54-10.06,10.04-22.07,9.93-34.07-.03-3.26-.25-6.79,1.57-9.5,1.38-2.05,3.7-3.24,5.92-4.35,8.06-4.01,16.13-8.02,24.19-12.03,17.74,15.94,44.32,15.51,68.13,14.17,2.09,11.57,4.18,23.14,6.27,34.71.78,4.3,1.61,8.74,4.11,12.33,2.5,3.58,7.15,6.06,11.28,4.66,3.49-1.18,5.61-4.64,7.28-7.93,6.14-12.15,9.96-25.46,11.2-39.01.19-2.06.4-4.3,1.83-5.79,1.18-1.22,2.92-1.66,4.57-2.06,25.05-6.19,48.58-18.42,68.04-35.37,7.13,8.45,20.04,9.13,30.78,6.5,20.54-5.05,38.35-20.18,46.64-39.64,3.02-7.1,6.43-16.04,14.1-16.8,5.62,11.05,1.78,24.33-2.19,36.08-6.86,20.29-13.98,40.82-26.1,58.48-12.12,17.66-30.05,32.39-51.17,35.95-5.14.87-10.48,1.09-15.29,3.1-4.04,1.69-7.47,4.55-10.85,7.34-11.89,9.82-24.15,19.41-38.01,26.19-34.86,17.04-78.8,13.75-110.74-8.29-13.44,11.46-31.62,17.17-49.19,15.46s-34.31-10.83-45.28-24.67c-23.99,8.8-52.3.21-70.37-17.88-18.06-18.08-26.3-44.48-30.02-60.65Z"/>
  <path class="cls-1" d="m787.16,420.63c-6.45-9.14-14.76-17.09-24.64-22.35-9.88-5.26-21.36-7.73-32.43-6.11-3.68.54-7.37,1.55-10.42,3.66-4.19,2.9-6.78,7.58-8.7,12.29-1.69,4.13-3,8.65-2.03,13,.96,4.35,4.88,8.32,9.32,7.94,3.8-.33,6.7-3.56,8.55-6.9,3.67-6.63,4.82-14.62,3.15-22.01-.68-3.03-1.85-6-3.83-8.39-4.65-5.64-13.27-6.97-20.05-4.25-6.78,2.72-11.79,8.81-14.68,15.53-2.67,6.22-3.79,13.16-7.53,18.8-3.93,5.94-10.7,9.9-17.8,10.44-4.08.31-8.35-.52-11.68-2.9-3.99-2.84-6.24-7.54-7.51-12.27-1.58-5.9-1.75-12.56,1.47-17.76,1.78-2.88,5.2-5.28,8.42-4.21,3.01,1,4.4,4.61,4.22,7.78-.35,6.36-5.89,11.98-12.23,12.54s-12.73-3.91-14.49-10.03c-1.03-3.6-.6-7.43-.73-11.17-.3-8.58-4.69-17.91-12.93-20.33-8.08-2.36-16.56,2.78-22.02,9.18-3.38,3.96-6.2,8.88-5.79,14.08.41,5.19,5.26,10.2,10.36,9.14"/>
  <path class="cls-1" d="m1004.2,407.85c3.61-8.37,11.56-14.08,19.79-17.99,8.64-4.11,18.2-6.73,27.74-6s19.05,5.14,24.63,12.91c3.67,5.11,5.21,12.82.85,17.36-4.99,5.2-14.35,2.47-18.79-3.21-4.72-6.03-5.72-14.75-2.49-21.69,3.23-6.94,10.54-11.79,18.19-12.07,7.14-.26,14.06,3.24,19.14,8.27s8.51,11.48,11.25,18.08c3.22,7.75,6.47,16.81,14.32,19.78,8.44,3.19,18.02-2.94,22.2-10.94,2.65-5.08,3.77-11.2,1.83-16.59-1.94-5.39-7.41-9.65-13.11-9.07-1.29.13-2.61.52-3.55,1.41-1.48,1.38-1.74,3.62-1.69,5.64.15,5.83,2.67,12.16,8.02,14.47,5.66,2.46,12.38-.51,16.69-4.92,3.65-3.74,6.22-8.52,7.32-13.63,1.71-7.97.08-17.01,4.71-23.71,3.97-5.74,12.07-7.95,18.64-5.59,6.57,2.35,11.3,8.77,12.28,15.67.98,6.91-1.55,14.08-6.15,19.33l44.62,187.14"/>
</svg>