<?xml version="1.0" encoding="UTF-8"?>
<svg id="Layer_1" data-name="Layer 1" xmlns="http://www.w3.org/2000/svg" viewBox="0 0 1920 1080">
  <defs>
    <style>
      .cls-1 {
        stroke: #000;
        stroke-miterlimit: 10;
      }
    </style>
  </defs>
  <path class="cls-1" d="m576.99,117.58c55.96-31.12,111.91-62.24,167.87-93.36,3.02,14.86-9.49,27.87-20.61,38.17-21.81,20.18-42.51,41.54-62,63.97-4.32,4.97-8.74,10.32-9.91,16.81-.77,4.26-.06,8.64.65,12.91,4.18,25.03,8.36,50.06,12.54,75.09,50.56-4.82,98.86-30.18,131.54-69.06-.39,25.73-13.99,50.92-35.29,65.37,17.28,24.57,60.75,22.45,75.55-3.69,14.16,13.29,4.28,37.46-9.48,51.16-13.76,13.7-31.91,26.25-34.26,45.53-.81,6.63.35,13.82-2.95,19.63-6.66,11.73-24.2,8.42-36.78,3.54-.04,10.71-1.72,23.94-11.74,27.74,17.17,9.19,31.95,22.8,42.51,39.16,2.17,3.36,4.22,7.02,4.35,11.02.34,10.34-12.42,16.67-22.61,14.87-10.18-1.8-18.65-8.6-27.95-13.12-9.3-4.52-21.66-6.29-29.07.93-2.8,2.73-4.68,6.57-8.22,8.22-6.69,3.11-15.9-3.11-21.46,1.74-3.33,2.91-3.07,8.07-2.54,12.46,3.92,32.33,7.85,64.67,11.77,97,54.85,2.56,110.37,18.05,153.48,52.05,43.11,34,72.08,88.17,67.8,142.91,136.2,5.51,272.06,19.69,406.05,47.33,14.63-25.37,30.55-52.03,56.43-65.74,25.88-13.71,64.52-7.57,75.27,19.67,2.8,7.08,3.53,14.97,7.26,21.61,9.05,16.09,30.87,18.36,49.33,18.74,29.69.61,59.37,1.21,89.06,1.82,14.23.29,28.82.53,42.27-4.12,21.17-7.31,37.68-26.08,59.75-29.93-3.99,10.57-7.99,21.15-11.98,31.72,30.19.44,60.37.89,90.56,1.33-17.65,9.39-33.4,22.34-46.02,37.84,11.28,1.53,22.16,5.89,31.37,12.57-6.04,6.97-12.08,13.94-18.13,20.9,7.29,3.39,14.59,6.77,21.88,10.16-3.92,3.45-7.84,6.9-11.76,10.35,9.15,6.3,19.06,11.52,29.44,15.5-16.78,8.47-26.64,28.79-22.92,47.21-14.18,1.61-28.35,3.22-42.53,4.83-13.95,3.97-27.89,7.94-41.84,11.91,19.47,19.57,38.94,39.14,58.41,58.7-40.46-15.62-83.21-25.27-126.45-28.55-12.72-.97-25.75-1.44-37.64-6.06-15.75-6.11-27.83-18.79-41.12-29.23-29.53-23.21-67.03-36.09-104.59-35.9-16.78.08-34.42,2.53-49.69-4.43-22.31-10.18-31.76-36.52-49.55-53.4-22.18-21.05-54.89-25.45-85.28-28.82-93.46-10.37-186.92-20.73-280.38-31.1-.7,31.47-6.89,62.82-18.21,92.19-6.83,17.72-15.68,35.78-13.72,54.66,1.96,18.88,20.79,37.44,38.54,30.7,3.14-1.19,6.02-3.08,9.28-3.86,11.19-2.69,21.75,10.27,19.36,21.52-2.38,11.26-13.95,18.78-25.41,19.81s-22.73-3.12-33.14-8.02c-60.18-28.32-110.03-84.74-176.43-88.55-2.74-.16-5.71-.15-7.91,1.49-4.45,3.32-2.32,10.89,2.18,14.14,4.51,3.25,10.33,3.89,15.48,5.98,13.63,5.53,21.13,20.95,21.69,35.65.56,14.7-4.48,28.97-9.44,42.81-3.52,9.81-7.48,20.22-15.93,26.32-9.04,6.52-22.38,6.28-31.17-.57-8.79-6.85-12.3-19.72-8.2-30.08,4.85-2.24,10.47-2.76,15.64-1.45,7.77-34.93-20.69-73.36-56.38-76.11-7.07,12.25,6.17,25.68,12.02,38.56,7.94,17.49,1.69,37.82-4.63,55.96-2.28,6.54-4.8,13.44-10.23,17.75-10.73,8.52-26.57,2.84-38.22-4.36-21.6-13.34-42.26-35.93-37.53-60.87.83-4.39,2.7-8.94,6.52-11.25,6.65-4.02,15.78,1.2,18.7,8.4s1.48,15.34,0,22.97c7.37,2.51,14.99-5.19,15.51-12.96.52-7.77-3.66-14.99-7.69-21.65-12.83-21.2-25.67-42.4-42.34-64.96-22.76,4.5-45.87,9.02-69,7.26-8.6-.65-17.31-2.23-24.88-6.36-7.68-4.19-13.74-10.74-19.67-17.17-23.5-25.53-48.48-54.78-47.73-89.47.4-18.78,7.06-41.65-7.56-53.44-3.95-3.19-8.89-4.85-13.74-6.34-84.97-26.22-176.13-21.2-263.99-34.87-10.36-1.61-22.96-5.69-24.46-16.07-1.93-13.33,15.74-19.84,29.19-20.51,31.45-1.56,62.95,1.48,94.23,5.16,30.53,3.59,61,7.79,91.36,12.6,26.29,4.16,56.64,7.68,76.37-10.2,7.26-6.58,12.09-15.35,16.78-23.95,42.54-77.95,85.08-155.89,127.62-233.84-20.52.5-35.71-26.49-24.64-43.77-9.88,3.52-19.89-7.46-20.09-17.94-.2-10.49,5.73-19.94,10.54-29.26,1.22-2.36,2.39-5.12,1.37-7.57-1.03-2.47-3.89-3.59-6.53-4.09-17.76-3.37-34.83,9.6-52.91,9.53-5.29-.02-11.1-1.53-14.02-5.94-5.66-8.54,3.25-19.13,11.55-25.14,23.9-17.3,49.87-31.72,76.59-40.78-3.9-33.6,5.87-67.16,16.51-99.27,4.19-12.63,10.8-24.58,18.32-28.77Z"/>
</svg>